<svg width="271" height="70" viewBox="0 0 271 70" fill="none" xmlns="http://www.w3.org/2000/svg">
<path fill-rule="evenodd" clip-rule="evenodd" d="M24.5233 37.7587H14.5898L19.867 20.6304L24.5233 37.7587ZM9.9335 55.0728L13.0377 44.6348H25.765L28.8692 55.0728H39.4236L28.2484 15.4578C27.6276 12.8561 26.3859 12.0198 23.5921 12.0198H8.07097V15.5817H9.31266C11.1752 15.5817 12.1065 16.1702 12.1065 17.595C12.1065 18.4932 12.1065 19.0817 11.1752 21.2189L0 55.0728" fill="#004A93"/>
<path d="M52.7719 55.0728V15.1791C52.7719 13.1038 51.5302 12.0198 49.3572 12.0198H39.7341V15.5817H40.355C42.2175 15.5817 43.1488 16.3561 43.1488 18.0286V55.0728" fill="#004A93"/>
<path d="M70.1554 55.0728V15.1791C70.1554 13.1038 68.9137 12.0198 66.7408 12.0198H57.1177V15.5817H57.7385C59.601 15.5817 60.5323 16.3561 60.5323 18.0286V55.0728" fill="#004A93"/>
<path fill-rule="evenodd" clip-rule="evenodd" d="M87.8495 15.8295C87.8495 12.9799 85.6765 11.3074 82.2619 11.3074C78.5368 11.3074 76.6743 12.9799 76.6743 15.8295C76.6743 18.741 78.5368 20.4445 82.2619 20.4445C85.6765 20.4445 87.8495 18.741 87.8495 15.8295ZM87.5391 55.0728V26.0197C87.5391 24.0065 86.2974 22.8295 84.4348 22.8295H74.8118V26.3295H75.4326C77.2951 26.3295 77.916 27.1038 77.916 28.8693V55.0728" fill="#004A93"/>
<path fill-rule="evenodd" clip-rule="evenodd" d="M110.51 39.4312V45.8737C108.648 47.7321 106.475 48.7852 104.612 48.7852C102.75 48.7852 101.818 47.887 101.818 45.4711C101.818 42.8073 102.439 41.7852 104.612 40.9489C106.164 40.2985 107.716 39.8958 110.51 39.4312ZM96.8517 31.7189L97.7829 31.3472C100.266 30.356 101.818 29.9844 103.681 29.6437C104.612 29.5198 105.854 29.3959 106.475 29.3959C109.579 29.3959 110.51 30.418 110.51 33.2675V34.0728C106.164 34.7852 104.923 35.033 102.439 35.5596C101.198 35.8693 99.9559 36.272 98.7142 36.7985C94.6787 38.4091 92.8162 41.5065 92.8162 46.3693C92.8162 52.471 95.2995 55.3825 100.887 55.3825C103.06 55.3825 105.233 54.887 106.785 53.8958C108.337 53.1834 108.958 52.8118 110.821 51.1082V52.0994C110.821 54.1126 111.752 55.0728 113.614 55.0728H122.927V51.7587H122.617C120.754 51.7587 119.823 50.9224 119.823 49.2498V33.4224C119.823 25.1835 117.029 22.3959 108.958 22.3959C106.164 22.3959 103.681 22.7056 101.198 23.2941C98.7142 23.8826 97.4725 24.3162 94.6787 25.772" fill="#004A93"/>
<path fill-rule="evenodd" clip-rule="evenodd" d="M137.517 55.0728V33.2056C139.69 31.1923 141.242 30.418 143.415 30.418C145.588 30.418 146.209 31.3472 146.209 34.6304V55.0728H155.832V33.0817C155.832 28.5596 155.211 26.6083 153.969 24.9047C152.417 23.2322 150.555 22.4578 147.761 22.4578C144.036 22.4578 141.242 23.8207 136.896 27.5684V25.8339C136.896 23.8207 135.965 22.8295 134.102 22.8295H124.79V26.3295H125.1C126.963 26.3295 127.894 27.1038 127.894 28.8693V55.0728" fill="#004A93"/>
<path d="M185.634 48.9072H171.355L185.013 29.4558V22.8274H164.525C162.042 22.8274 161.111 23.8187 161.111 26.2036V32.0576H164.525V31.4071C164.525 29.6417 165.457 28.9293 167.319 28.9293H174.769L160.8 48.3805V55.0709H185.634" fill="#004A93"/>
<path fill-rule="evenodd" clip-rule="evenodd" d="M240.579 53.3053V16.8185C240.579 13.8761 239.337 12.9159 236.543 12.9159H228.162V16.9426H229.093C230.645 16.9426 231.266 17.5309 231.266 19.3274V53.3053H240.579ZM245.545 53.3053H254.547V25.7699C254.547 22.9823 253.306 21.8672 250.512 21.8672H245.545V53.3053ZM226.299 53.3053V21.8672H221.333C218.539 21.8672 217.297 22.9823 217.297 25.7699V53.3053H226.299ZM265.102 34.9691C265.102 52.0355 252.685 64.4867 235.922 64.4867C219.159 64.4867 206.742 52.0355 206.742 34.9691C206.742 17.9028 219.159 5.45136 235.922 5.45136C252.685 5.45136 265.102 17.9028 265.102 34.9691ZM271 34.9691C271 14.9913 256.1 1.54134e-05 235.922 1.54134e-05C216.055 1.54134e-05 200.845 14.9913 200.845 34.9691C200.845 55.0089 216.055 70 235.922 70C256.1 70 271 55.0089 271 34.9691Z" fill="#004A93"/>
</svg>
