<svg width="66" height="70" viewBox="0 0 66 70" fill="none" xmlns="http://www.w3.org/2000/svg">
<path d="M66.0005 0.000396729H0.000488281V70.0004H66.0005V0.000396729Z" fill="#00008F"/>
<path d="M40.8045 34L66 0H62.2787L37 34H40.8045Z" fill="#FF1721"/>
<path d="M50.5281 50.0126C51.6808 53.4217 54.0558 62.2932 55 63H48.7647C48.746 62.2157 48.6479 61.4357 48.4721 60.6735C48.2032 59.6595 45.9479 51.9887 45.9479 51.9887H36.0437L34.4865 54.3225C34.4865 54.3225 36.3568 60.5121 36.473 60.8155C36.6747 61.3623 37.5677 63 37.5677 63H31.5922C31.5922 63 31.4373 62.0547 31.3792 61.661C31.3324 61.3431 30.813 59.6018 30.813 59.6018C30.813 59.6018 29.4587 61.1708 29.0896 61.8982C28.7171 62.6243 28.5519 63 28.5519 63H23.8772C23.8772 63 23.7211 62.0547 23.663 61.661C23.6176 61.3431 23.0457 59.4621 23.0457 59.4621C23.0457 59.4621 21.7369 61.142 21.3644 61.868C20.9942 62.5954 20.8347 63 20.8347 63H16.2113C16.2113 63 17.5178 61.685 17.9746 61.1203C18.7445 60.1629 21.6139 56.1987 21.6139 56.1987L20.4635 51.9887H10.6344C10.6344 51.9887 5.03014 59.7739 4.80922 60.0148C4.58597 60.252 2.95253 62.7303 2.91602 63H0V61.0396C0.0361678 60.998 0.0745673 60.9586 0.115009 60.9216C0.205054 60.8517 4.36377 55.3942 8.18422 50.0126C11.6174 45.3198 14.8387 40.7558 15.1212 40.3211C15.8058 39.2699 16.7922 37 16.7922 37H21.8735C21.8735 37 22.0308 39.088 22.1789 39.595C22.3109 40.0429 25.4069 50.7821 25.4798 50.8978L27.1919 48.5832L24.2656 39.0603C24.2656 39.0603 23.5799 37.2684 23.3566 37H29.2924C29.2714 37.576 29.3368 38.1519 29.486 38.7063C29.7274 39.4915 30.9999 44.3456 30.9999 44.3456C30.9999 44.3456 35.0481 38.9809 35.285 38.5955C35.5726 38.1149 35.7443 37.5671 35.7851 37H40.7309C40.7309 37 39.8254 37.6995 38.2386 39.8214C37.7055 40.5355 32.4828 47.5525 32.4828 47.5525C32.4828 47.5525 32.9386 49.195 33.1606 50.0126C33.2211 50.2474 33.2632 50.4064 33.2632 50.4233C33.2632 50.4307 33.3782 50.2812 33.5764 50.0126C34.9239 48.2075 41.0533 39.7106 41.4246 38.9832C41.7242 38.3956 42.165 37.7273 42.4236 37H47.2486C47.2486 37 47.3603 38.5233 47.5072 38.9447L50.5281 50.0126ZM43.1856 41.9697C42.4771 43.581 38.307 48.9481 38.307 48.9481H44.9113C44.9113 48.9481 43.631 44.7803 43.4078 43.841C43.2937 43.2405 43.25 42.6273 43.2778 42.0154C43.2778 41.93 43.263 41.7915 43.1856 41.9697ZM17.8105 41.9697C17.102 43.581 12.9319 48.9481 12.9319 48.9481H19.5362C19.5362 48.9481 18.2571 44.7803 18.0338 43.841C17.9198 43.2405 17.8761 42.6273 17.9039 42.0154C17.9039 41.93 17.888 41.7915 17.8105 41.9697H17.8105ZM27.7535 58.2434L29.5715 55.6038C29.404 55.4135 28.38 52.1309 28.38 52.1309L26.6223 54.5416L27.7535 58.2434Z" fill="white"/>
</svg>
