<svg width="682" height="415" viewBox="0 0 682 415" fill="none" xmlns="http://www.w3.org/2000/svg">
<g clip-path="url(#clip0)">
<path opacity="0.1" d="M674.771 385.034C672.124 392.318 668.865 399.307 665.039 405.907C663.244 409.054 661.275 412.073 659.144 414.948C659.125 414.977 659.103 415.003 659.079 415.027H0L0.0889563 414.948C0.682 414.432 4.16317 411.29 9.57765 405.907C13.4621 402.051 18.3369 397.038 23.8107 391.006C68.5795 341.9 154.577 225.665 82.9549 119.185C16.3739 20.1986 88.061 2.23594 135.35 0.139413C153.519 -0.654359 171.645 2.65012 188.641 9.85487C210.489 19.114 250.419 33.3069 302.44 39.8147C304.148 40.0263 305.868 40.238 307.612 40.4298C335.154 43.5572 362.882 44.1191 390.507 42.1096V42.1096C391.32 42.0567 392.138 41.9906 392.962 41.9245C420.291 39.7844 447.412 35.1055 474.043 27.9366C475.769 27.467 477.471 27.0239 479.167 26.5808C567.904 3.68433 649.709 81.7188 629.255 169.905C621.693 202.524 623.615 237.292 648.825 265.42C690.101 311.332 685.102 356.549 674.771 385.034Z" fill="#3498DB"/>
<path d="M674.771 385.034C672.124 392.318 668.866 399.306 665.039 405.906C663.245 409.053 661.276 412.073 659.145 414.947H0.0892639C0.682308 414.431 4.16347 411.29 9.57796 405.906C13.4624 402.051 18.3372 397.037 23.811 391.006L93.2742 375.001C94.1717 374.794 95.0858 374.69 96.0022 374.69L170.056 374.571H170.133L206.812 374.518H206.895L237.852 374.478H258.117H278.873L363.927 374.346H364.064H370.653H382.229H396.681H400.524L415.131 374.161H419.958L462.444 374.095H476.013H482.536L531.611 374.022H546.223L592.706 373.949L631.942 373.896C633.034 373.897 634.123 374.041 635.186 374.326L674.771 385.034Z" fill="#454B69"/>
<path opacity="0.4" d="M9.57796 405.906H665.039C663.245 409.053 661.276 412.073 659.145 414.947H0.0892639C0.670447 414.398 4.15161 411.257 9.57796 405.906Z" fill="black"/>
<path d="M434.831 200.222L433.515 200.506L373.997 213.257C356.71 216.961 339.173 220.684 321.613 219.262C308.893 218.231 297.008 214.024 284.785 210.334C277.876 208.244 270.552 207.411 268.21 198.787C264.978 186.882 270.238 169.257 271.477 157.193C272.664 145.355 273.363 133.219 271.252 121.519C270.783 118.89 270.165 116.297 269.402 113.755C267.285 106.751 263.958 99.4694 265.755 92.3597C267.172 86.7182 271.495 82.6905 275.54 78.9604C283.463 71.6854 291.552 63.5308 294.695 52.6249C296.237 47.3339 296.528 41.6396 298.188 36.3883C301.337 26.4017 309.248 18.9349 318.049 14.98C326.85 11.025 336.528 10.1851 346.023 10.1851C354.407 10.1856 362.781 10.8064 371.091 12.0435C380.153 13.3662 389.297 15.5421 397.262 20.5553C405.227 25.5684 411.94 33.7826 413.796 43.7956C416.423 57.9555 409.129 73.0346 413.043 86.7844C415.012 93.7353 419.566 99.3503 422.727 105.713C425.305 111.035 426.895 116.881 427.405 122.903C427.914 128.925 427.332 134.999 425.693 140.765C421.909 153.84 412.646 167.068 417.39 179.746C420.409 187.808 428.118 192.113 433.491 198.502C433.969 199.075 434.416 199.649 434.831 200.222Z" fill="#454B69"/>
<path opacity="0.1" d="M433.515 198.555V200.506L373.997 213.257C356.71 216.961 339.173 220.684 321.613 219.262C308.893 218.231 297.008 214.024 284.785 210.334C277.876 208.244 270.552 207.411 268.21 198.786C264.978 186.882 270.238 169.257 271.477 157.193C272.664 145.355 290.923 102.135 288.812 90.4351L397.932 95.726C398.667 102.188 427.507 134.621 425.71 140.818C421.927 153.893 412.663 167.12 417.408 179.799C420.432 187.861 428.142 192.166 433.515 198.555Z" fill="black"/>
<path d="M322.023 165.831C322.669 169.925 323.013 174.428 321.139 178C318.642 182.788 313.198 184.316 308.329 185.4L291.427 189.17C290.277 189.428 289.055 189.719 288.195 190.599C287.181 191.611 286.837 193.211 286.689 194.719C286.007 201.544 288.172 208.27 290.147 214.772C294.138 227.939 297.488 241.385 302.535 254.09C307.582 266.795 314.509 278.924 324.395 287.416C334.281 295.908 347.363 300.432 359.467 297.112C370.012 294.221 378.658 285.921 386.113 277.119C392.263 269.844 398.015 261.907 400.998 252.469C403.056 245.988 403.726 239.083 404.373 232.245C405.373 221.76 406.373 211.275 407.373 200.79C407.842 195.87 408.15 190.334 405.286 186.558C404.029 184.898 402.321 183.793 400.577 182.768C394.089 178.926 387.257 175.751 381.22 171.122C375.183 166.492 369.828 160.116 367.995 152.207C366.898 147.458 367.094 142.286 365.226 137.862C363.138 132.901 358.702 129.542 353.958 128.067C349.214 126.592 344.208 126.79 339.322 127.405C334.435 128.02 315.6 129.595 313.578 135.739C312.492 139.045 316.994 146.142 318.061 149.396C319.818 154.731 321.144 160.232 322.023 165.831Z" fill="#EFB7B9"/>
<path opacity="0.1" d="M322.023 165.831C322.669 169.925 323.013 174.428 321.139 178C318.642 182.788 313.198 184.316 308.329 185.4L291.427 189.17C290.277 189.428 289.055 189.719 288.195 190.599C287.181 191.611 286.837 193.211 286.689 194.719C286.007 201.544 288.172 208.27 290.147 214.772C294.138 227.939 297.488 241.385 302.535 254.09C307.582 266.795 314.509 278.924 324.395 287.416C334.281 295.908 347.363 300.432 359.467 297.112C370.012 294.221 378.658 285.921 386.113 277.119C392.263 269.844 398.015 261.907 400.998 252.469C403.056 245.988 403.726 239.083 404.373 232.245C405.373 221.76 406.373 211.275 407.373 200.79C407.842 195.87 408.15 190.334 405.286 186.558C404.029 184.898 402.321 183.793 400.577 182.768C394.089 178.926 387.257 175.751 381.22 171.122C375.183 166.492 369.828 160.116 367.995 152.207C366.898 147.458 367.094 142.286 365.226 137.862C363.138 132.901 358.702 129.542 353.958 128.067C349.214 126.592 344.208 126.79 339.322 127.405C334.435 128.02 315.6 129.595 313.578 135.739C312.492 139.045 316.994 146.142 318.061 149.396C319.818 154.731 321.144 160.232 322.023 165.831Z" fill="black"/>
<path d="M362.699 237.748L372.609 214.348C377.253 203.383 381.997 191.862 381.505 179.752C381.41 177.345 381.386 174.336 383.284 173.245C384.108 172.869 385.006 172.742 385.887 172.874C396.32 173.469 406.615 175.792 416.435 179.766C418.339 180.533 420.29 181.419 421.624 183.112C422.959 184.805 423.498 187.08 423.955 189.263C425.51 196.642 426.645 204.124 427.353 211.663C429.132 230.327 428.249 249.156 427.353 267.879L424.72 325.041C424.734 325.852 424.586 326.656 424.287 327.396C423.635 328.718 422.164 329.162 420.841 329.413C415.747 330.385 410.54 330.187 405.381 329.968C369.087 328.434 332.602 326.08 296.545 330.987C296.708 325.039 296.623 319.087 296.29 313.13C294.861 287.409 288.883 262.317 283.012 237.397C279.59 222.847 276.275 206.974 281.785 193.264C282.595 191.099 283.759 189.121 285.218 187.431C287.561 184.871 290.757 183.522 293.924 182.557C299.387 180.899 305.045 180.186 310.701 180.44L348.093 271.226C349.801 275.379 351.206 279.751 352.908 283.851C354.438 276.768 352.6 268.468 354.438 260.79C356.419 252.82 359.539 245.195 362.699 237.748Z" fill="white"/>
<path d="M358.791 300.214C365.481 300.683 371.981 296.86 376.583 291.457C381.185 286.054 384.221 279.202 386.789 272.277C390.48 262.407 393.415 252.205 395.56 241.782C397.339 232.92 398.602 223.746 397.375 214.765C395.679 202.365 389.386 191.095 388.313 178.608C388.129 176.426 388.248 173.873 389.819 172.557C390.792 171.743 392.073 171.631 393.283 171.552C404.467 170.811 416.755 170.95 425.42 178.866C428.059 181.274 430.2 184.283 432.779 186.763C438.923 192.715 447.605 195.744 451.549 203.648C452.925 206.399 453.583 209.514 454.544 212.477C456.81 219.487 460.73 225.651 464.626 231.716C460.848 249.493 456.507 267.284 452.729 285.062C450.517 295.491 448.287 305.961 444.812 315.947C442.535 322.495 439.671 329.175 440.37 336.185C440.649 338.943 441.473 341.582 442.191 344.241C444.706 353.572 445.885 363.288 445.684 373.03L276.465 373.493C284.572 360.53 286.95 344.631 286.126 328.857C285.728 321.298 284.198 313.692 280.788 307.151C275.415 296.9 265.962 290.22 256.645 284.499C250.122 280.531 243.118 302.859 236.067 300.299C237.206 291.318 237.727 256.649 237.253 247.609C237.099 244.646 236.862 241.603 237.68 238.773C238.237 236.835 239.263 235.102 239.957 233.217C242.739 225.671 240.088 216.022 244.583 209.6C247.691 205.136 253.141 203.866 257.571 201.115C262.119 198.284 265.636 193.84 269.598 190.043C277.371 182.682 286.869 177.953 296.972 176.413C299.92 181.597 301.711 187.493 302.197 193.608C302.5 197.451 302.28 201.346 302.761 205.169C303.419 210.347 305.34 215.208 307.244 219.997C315.173 239.963 323.132 259.989 333.178 278.739C336.018 284.03 339.108 289.321 343.224 293.441C347.34 297.561 353.264 300.505 358.791 300.214Z" fill="#3498DB"/>
<path opacity="0.1" d="M358.791 300.214C365.481 300.683 371.981 296.86 376.583 291.457C381.185 286.054 384.221 279.202 386.789 272.277C390.48 262.407 393.415 252.205 395.56 241.782C397.339 232.92 398.602 223.746 397.375 214.765C395.679 202.365 389.386 191.095 388.313 178.608C388.129 176.426 388.248 173.873 389.819 172.557C390.792 171.743 392.073 171.631 393.283 171.552C404.467 170.811 416.755 170.95 425.42 178.866C428.059 181.274 430.2 184.283 432.779 186.763C438.923 192.715 447.605 195.744 451.549 203.648C452.925 206.399 453.583 209.514 454.544 212.477C456.81 219.487 460.73 225.651 464.626 231.716C460.848 249.493 456.507 267.284 452.729 285.062C450.517 295.491 448.287 305.961 444.812 315.947C442.535 322.495 439.671 329.175 440.37 336.185C440.649 338.943 441.473 341.582 442.191 344.241C444.706 353.572 445.885 363.288 445.684 373.03L276.465 373.493C284.572 360.53 286.95 344.631 286.126 328.857C285.728 321.298 284.198 313.692 280.788 307.151C275.415 296.9 265.962 290.22 256.645 284.499C250.122 280.531 243.118 302.859 236.067 300.299C237.206 291.318 237.727 256.649 237.253 247.609C237.099 244.646 236.862 241.603 237.68 238.773C238.237 236.835 239.263 235.102 239.957 233.217C242.739 225.671 240.088 216.022 244.583 209.6C247.691 205.136 253.141 203.866 257.571 201.115C262.119 198.284 265.636 193.84 269.598 190.043C277.371 182.682 286.869 177.953 296.972 176.413C299.92 181.597 301.711 187.493 302.197 193.608C302.5 197.451 302.28 201.346 302.761 205.169C303.419 210.347 305.34 215.208 307.244 219.997C315.173 239.963 323.132 259.989 333.178 278.739C336.018 284.03 339.108 289.321 343.224 293.441C347.34 297.561 353.264 300.505 358.791 300.214Z" fill="black"/>
<path d="M349.842 164.329C377.918 164.329 400.678 138.947 400.678 107.637C400.678 76.3269 377.918 50.9449 349.842 50.9449C321.766 50.9449 299.007 76.3269 299.007 107.637C299.007 138.947 321.766 164.329 349.842 164.329Z" fill="#EFB7B9"/>
<path d="M323.167 183.185C324.561 168.516 319.093 154.164 312.902 141.129C309.936 134.899 306.758 128.688 305.269 121.843C303.781 114.998 304.208 107.247 308.015 101.619C311.253 96.8305 316.389 94.2446 321.139 91.4338C334.548 83.4974 346.806 71.8309 352.701 56.2293C349.368 58.2531 350.234 64.2914 353.175 66.9567C356.117 69.622 360.126 70.1378 363.743 71.4077C376.933 76.0372 384.844 90.7063 391.189 104.41C392.227 106.645 393.283 109.006 393.271 111.526C393.259 114.046 392.227 116.281 391.148 118.424C388.017 124.641 384.185 130.613 382.762 137.564C381.131 145.5 382.851 153.847 385.087 161.631C387.459 169.911 390.608 178.258 396.301 184.197C401.995 190.136 410.825 193.086 417.829 189.25C410.837 175.844 403.596 160.864 406.324 145.666C407.64 138.391 411.181 131.777 412.687 124.542C415.557 110.739 410.778 96.5395 406.087 83.3651L392.067 44.047C389.926 38.0352 387.489 31.6199 382.578 28.2139C379.257 25.919 375.236 25.3237 371.346 24.9071C358.821 23.6637 345.845 24.0738 334.186 29.2721C312.943 38.7362 299.623 62.0692 289.055 84.7011C285.888 91.4801 282.763 98.6824 282.894 106.328C282.965 110.521 284.014 114.601 284.868 118.689C288.344 135.329 288.533 152.57 288.711 169.653C288.848 182.762 288.237 195.116 283.095 207.054C290.141 208.614 300.359 212.827 307.333 209.745C316.424 205.738 322.023 193.39 323.167 183.185Z" fill="#454B69"/>
<g opacity="0.1">
<path opacity="0.1" d="M288.682 169.376C288.705 167.511 288.705 165.628 288.682 163.728C288.504 146.644 288.314 129.403 284.839 112.763C284.062 109.525 283.457 106.239 283.024 102.922C282.902 104.061 282.849 105.207 282.864 106.354C282.935 110.547 283.985 114.628 284.839 118.715C288.296 135.256 288.51 152.392 288.682 169.376Z" fill="black"/>
<path opacity="0.1" d="M412.687 124.542C413.466 120.677 413.725 116.706 413.458 112.756C413.342 114.72 413.084 116.671 412.687 118.589C411.181 125.864 407.64 132.419 406.324 139.713C405.756 142.931 405.597 146.221 405.849 149.488C405.944 148.205 406.102 146.929 406.324 145.666C407.64 138.371 411.181 131.79 412.687 124.542Z" fill="black"/>
<path opacity="0.1" d="M392.808 108.49C393.098 107.551 393.254 106.567 393.271 105.574C393.271 103.054 392.227 100.693 391.189 98.4574C384.844 84.754 376.956 70.0981 363.743 65.4553C360.126 64.1855 356.123 63.6696 353.175 61.0043C352.417 60.2759 351.796 59.3859 351.35 58.3865C350.904 57.3871 350.641 56.2984 350.578 55.1843C344.149 68.3455 333.107 78.4115 321.139 85.4815C316.395 88.2923 311.253 90.8782 308.015 95.6665C304.973 100.164 304.089 106.017 304.617 111.678C304.916 108.045 306.09 104.569 308.015 101.619C311.253 96.8305 316.389 94.2445 321.139 91.4337C333.107 84.3638 344.149 74.2978 350.578 61.1366C350.641 62.2507 350.904 63.3393 351.35 64.3387C351.796 65.3381 352.417 66.2282 353.175 66.9566C356.14 69.6021 360.126 70.1378 363.743 71.4076C376.932 76.0372 384.844 90.7062 391.189 104.41C391.833 105.716 392.374 107.081 392.808 108.49V108.49Z" fill="black"/>
<path opacity="0.1" d="M396.301 178.245C390.608 172.292 387.471 163.959 385.087 155.679C383.656 151.027 382.701 146.211 382.24 141.321C381.689 148.113 383.201 155.064 385.087 161.631C387.459 169.911 390.608 178.258 396.301 184.197C401.994 190.136 410.825 193.086 417.829 189.25C416.987 187.643 416.15 186.009 415.32 184.362C408.814 186.406 401.342 183.496 396.301 178.245Z" fill="black"/>
<path opacity="0.1" d="M323.168 177.233C322.023 187.438 316.425 199.785 307.31 203.82C300.982 206.617 291.974 203.403 285.1 201.624C284.509 203.48 283.832 205.301 283.072 207.08C290.117 208.641 300.336 212.854 307.31 209.772C316.425 205.737 322.023 193.39 323.168 183.185C323.404 180.632 323.447 178.061 323.298 175.5C323.263 176.075 323.209 176.657 323.168 177.233Z" fill="black"/>
</g>
<path d="M395.026 341.212C385.864 339.591 376.565 336.463 367.479 338.566C362.213 339.783 357.398 342.706 353.021 346.238C355.429 348.387 358.24 350.305 359.77 353.295C360.72 355.363 361.433 357.556 361.893 359.822C362.854 363.791 363.82 367.838 363.969 371.965C364.117 376.092 363.376 380.391 361.169 383.717C372.722 384.987 383.919 381.813 395.186 378.711C396.475 378.459 397.702 377.907 398.786 377.091C400.565 375.53 401.087 372.752 401.099 370.219C401.099 365.695 399.96 361.284 398.804 356.945C397.428 351.74 396.408 346.383 395.026 341.212Z" fill="white"/>
<path d="M456.893 229.659C461.441 230.32 464.97 234.414 467.567 238.621C474.856 250.327 477.999 264.52 481.498 278.23C485.847 295.28 490.961 312.061 496.84 328.573C498.106 332.386 499.645 336.08 501.442 339.618C502.907 342.349 504.686 344.975 505.332 348.076C506.898 355.576 501.353 362.627 495.571 366.806C492.489 369.123 489.123 370.932 485.578 372.177C482.127 373.327 478.527 373.764 474.951 374.2L442.031 378.169C426.879 380.007 411.59 381.846 396.432 380.073C395.477 376.37 397.351 373.751 397.215 369.895C397.12 367.137 396.028 364.571 395.056 362.031C393.262 357.508 392.077 352.714 391.539 347.805C391.367 346 391.308 344.148 390.691 342.468C390.074 340.788 388.752 339.28 387.133 339.161C396.028 338.176 402.783 336.304 411.679 335.312C414.982 334.942 418.416 334.525 421.233 332.567C424.726 330.14 426.683 325.762 428.237 321.516C432.085 311 434.564 299.413 432.542 288.276C430.882 279.142 426.25 270.637 426.274 261.319C426.274 255.77 427.97 250.393 429.974 245.314C432.097 239.943 434.867 234.454 439.528 231.729C444.19 229.004 451.632 228.865 456.893 229.659Z" fill="#3498DB"/>
<path opacity="0.08" d="M456.893 229.659C461.441 230.32 464.97 234.414 467.567 238.621C474.856 250.327 477.999 264.52 481.498 278.23C485.847 295.28 490.961 312.061 496.84 328.573C498.106 332.386 499.645 336.08 501.442 339.618C502.907 342.349 504.686 344.975 505.332 348.076C506.898 355.576 501.353 362.627 495.571 366.806C492.489 369.123 489.123 370.932 485.578 372.177C482.127 373.327 478.527 373.764 474.951 374.2L442.031 378.169C426.879 380.007 411.59 381.846 396.432 380.073C395.477 376.37 397.351 373.751 397.215 369.895C397.12 367.137 396.028 364.571 395.056 362.031C393.262 357.508 392.077 352.714 391.539 347.805C391.367 346 391.308 344.148 390.691 342.468C390.074 340.788 388.752 339.28 387.133 339.161C396.028 338.176 402.783 336.304 411.679 335.312C414.982 334.942 418.416 334.525 421.233 332.567C424.726 330.14 426.683 325.762 428.237 321.516C432.085 311 434.564 299.413 432.542 288.276C430.882 279.142 426.25 270.637 426.274 261.319C426.274 255.77 427.97 250.393 429.974 245.314C432.097 239.943 434.867 234.454 439.528 231.729C444.19 229.004 451.632 228.865 456.893 229.659Z" fill="black"/>
<path d="M250.745 221.068C252.897 215.367 255.086 209.481 255.145 203.297C255.21 196.611 252.773 190.261 250.911 183.912C248.608 176.144 247.075 168.118 246.338 159.978C246.186 159.198 246.291 158.383 246.635 157.683C247.127 156.909 248.076 156.75 248.912 156.545C253.016 155.5 256.118 151.803 258.68 148.08C262.654 142.329 266.01 136.078 268.678 129.456C270.641 124.581 273.298 118.636 278.09 118.589C276.161 128.695 273.77 138.683 270.926 148.516C275.937 147.088 280.699 145.011 285.711 143.582C286.692 143.237 287.719 143.085 288.747 143.133C291.748 143.483 293.586 148.013 291.843 150.758C294.292 153.959 298.366 154.819 301.569 157.015C304.771 159.21 307.072 164.647 304.225 167.405C303.668 167.94 302.962 168.317 302.559 169.005C301.183 171.373 304.552 174.091 304.273 176.895C304.048 179.19 301.408 180.262 299.41 179.653C297.411 179.045 295.852 177.378 294.073 176.155C292.293 174.931 289.969 174.17 288.243 175.44C287.78 181.664 287.282 188.006 284.868 193.674C283.985 195.744 282.852 197.682 282.14 199.831C281.46 202.175 281.038 204.603 280.883 207.06L278.73 229.011C268.459 231.306 259.249 227.873 250.745 221.068Z" fill="#EFB7B9"/>
<path d="M248.236 240.743L246.344 226.465C246.163 225.302 246.062 224.126 246.042 222.946C246.042 219.639 247.347 216.485 248.61 213.475C259.077 218.925 270.392 220.863 281.939 220.87C283.463 220.87 285.201 220.711 286.149 219.381C288.112 221.901 288.172 225.955 287.336 229.156C286.499 232.357 284.892 235.241 283.825 238.363C283.285 239.943 282.846 241.669 281.814 242.886C280.213 244.811 277.616 245.142 275.255 245.128C272.772 245.111 270.295 244.847 267.854 244.341C261.532 243.032 254.558 239.48 248.236 240.743Z" fill="white"/>
<path d="M287.276 240.162C279.151 239.13 271.08 237.675 263.062 235.796C259.13 234.877 255.163 233.852 251.154 234.031C248.545 234.15 245.739 234.732 243.444 233.29C245.68 241.775 245.816 250.717 243.142 259.043C241.558 264.004 239.145 268.627 237.982 273.732C235.563 284.413 238.884 296.06 235.859 306.549C235.539 307.92 234.911 309.177 234.033 310.2C233.108 311.146 231.844 311.635 230.99 312.66C229.733 314.168 229.656 316.437 229.65 318.494L229.597 336.714C229.561 348.315 229.698 360.616 235.189 370.444C241.452 381.687 254.635 387.514 266.11 384.094C269.162 383.224 272.02 381.664 274.508 379.511C278.493 375.979 281.031 370.874 283.516 365.9C286.481 359.948 289.447 353.863 290.401 347.164C291.078 342.422 290.698 337.581 290.212 332.812C287.531 306.358 281.713 280.128 282.965 253.574C283.152 248.72 284.655 244.043 287.276 240.162V240.162Z" fill="#3498DB"/>
<path d="M321.234 349.948C317.112 350.213 312.961 350.477 308.857 349.948C305.892 349.551 302.998 348.738 300.056 348.182C292.023 346.735 283.804 347.244 275.964 349.673C268.124 352.103 260.848 356.395 254.635 362.256C252.358 364.425 250.057 367.752 251.314 370.788C252.666 374.055 256.8 373.962 259.984 373.354C256.547 375.185 253.511 377.833 251.089 381.112C250.199 382.322 249.357 383.757 249.529 385.325C249.891 388.598 253.876 389.194 256.823 388.909C255.863 390.06 256.509 392.097 257.731 392.877C258.952 393.658 260.471 393.499 261.852 393.215C264.907 392.591 267.859 391.451 270.606 389.835C270.048 391.455 271.015 393.354 272.385 394.16C273.755 394.967 275.421 394.908 276.957 394.63C284.204 393.307 290.253 387.686 297.322 385.477C308.626 381.952 320.451 387.573 332.199 387.97C335.876 388.096 339.648 387.679 342.999 385.986C347.108 383.903 350.423 379.994 354.765 378.605C359.586 377.071 365.119 378.837 369.531 376.184C372.74 374.26 369.846 359.425 369.027 356.568C367.527 351.344 366.02 347.878 361.021 347.349C348.372 345.967 333.978 349.128 321.234 349.948Z" fill="#EFB7B9"/>
<path d="M352.79 345.901C352.79 345.901 371.939 363.976 360.891 383.698L382.24 375.477V358.222C382.24 357.402 374.133 345.08 374.133 345.08L364.556 343.434L352.79 345.901Z" fill="white"/>
<path d="M152.288 344.783H159.469C163.401 344.783 167.173 346.525 169.953 349.626C172.733 352.726 174.295 356.932 174.295 361.317V385.86H137.462V361.317C137.462 359.146 137.845 356.996 138.59 354.99C139.335 352.984 140.427 351.161 141.804 349.626C143.181 348.09 144.815 346.872 146.614 346.042C148.413 345.211 150.341 344.783 152.288 344.783Z" fill="#3F3D56"/>
<path opacity="0.1" d="M152.288 344.783H159.469C163.401 344.783 167.173 346.525 169.953 349.626C172.733 352.726 174.295 356.932 174.295 361.317V385.86H137.462V361.317C137.462 359.146 137.845 356.996 138.59 354.99C139.335 352.984 140.427 351.161 141.804 349.626C143.181 348.09 144.815 346.872 146.614 346.042C148.413 345.211 150.341 344.783 152.288 344.783Z" fill="black"/>
<path d="M154.405 353.817C156.033 353.817 157.352 352.345 157.352 350.53C157.352 348.715 156.033 347.243 154.405 347.243C152.777 347.243 151.457 348.715 151.457 350.53C151.457 352.345 152.777 353.817 154.405 353.817Z" fill="#3F3D56"/>
<path d="M154.405 349.71C156.033 349.71 157.352 348.238 157.352 346.423C157.352 344.608 156.033 343.136 154.405 343.136C152.777 343.136 151.457 344.608 151.457 346.423C151.457 348.238 152.777 349.71 154.405 349.71Z" fill="#3F3D56"/>
<path d="M154.405 345.603C156.033 345.603 157.352 344.131 157.352 342.316C157.352 340.501 156.033 339.029 154.405 339.029C152.777 339.029 151.457 340.501 151.457 342.316C151.457 344.131 152.777 345.603 154.405 345.603Z" fill="#3F3D56"/>
<path d="M154.405 341.496C156.033 341.496 157.352 340.024 157.352 338.209C157.352 336.394 156.033 334.922 154.405 334.922C152.777 334.922 151.457 336.394 151.457 338.209C151.457 340.024 152.777 341.496 154.405 341.496Z" fill="#3F3D56"/>
<path d="M154.405 337.389C156.033 337.389 157.352 335.917 157.352 334.102C157.352 332.287 156.033 330.815 154.405 330.815C152.777 330.815 151.457 332.287 151.457 334.102C151.457 335.917 152.777 337.389 154.405 337.389Z" fill="#3F3D56"/>
<path d="M154.405 333.282C156.033 333.282 157.352 331.81 157.352 329.995C157.352 328.179 156.033 326.708 154.405 326.708C152.777 326.708 151.457 328.179 151.457 329.995C151.457 331.81 152.777 333.282 154.405 333.282Z" fill="#3F3D56"/>
<path d="M154.405 329.168C156.033 329.168 157.352 327.696 157.352 325.881C157.352 324.066 156.033 322.594 154.405 322.594C152.777 322.594 151.457 324.066 151.457 325.881C151.457 327.696 152.777 329.168 154.405 329.168Z" fill="#3F3D56"/>
<path d="M158.829 330.815C160.457 330.815 161.776 329.343 161.776 327.528C161.776 325.713 160.457 324.241 158.829 324.241C157.201 324.241 155.881 325.713 155.881 327.528C155.881 329.343 157.201 330.815 158.829 330.815Z" fill="#3F3D56"/>
<path d="M161.776 329.168C163.404 329.168 164.724 327.696 164.724 325.881C164.724 324.066 163.404 322.594 161.776 322.594C160.149 322.594 158.829 324.066 158.829 325.881C158.829 327.696 160.149 329.168 161.776 329.168Z" fill="#3F3D56"/>
<path d="M164.724 327.528C166.352 327.528 167.671 326.056 167.671 324.241C167.671 322.425 166.352 320.954 164.724 320.954C163.096 320.954 161.776 322.425 161.776 324.241C161.776 326.056 163.096 327.528 164.724 327.528Z" fill="#3F3D56"/>
<path d="M154.405 325.061C156.033 325.061 157.352 323.589 157.352 321.774C157.352 319.959 156.033 318.487 154.405 318.487C152.777 318.487 151.457 319.959 151.457 321.774C151.457 323.589 152.777 325.061 154.405 325.061Z" fill="#3F3D56"/>
<path d="M154.405 320.954C156.033 320.954 157.352 319.482 157.352 317.667C157.352 315.852 156.033 314.38 154.405 314.38C152.777 314.38 151.457 315.852 151.457 317.667C151.457 319.482 152.777 320.954 154.405 320.954Z" fill="#3F3D56"/>
<path d="M154.405 316.847C156.033 316.847 157.352 315.375 157.352 313.56C157.352 311.744 156.033 310.273 154.405 310.273C152.777 310.273 151.457 311.744 151.457 313.56C151.457 315.375 152.777 316.847 154.405 316.847Z" fill="#3F3D56"/>
<path d="M154.405 312.74C156.033 312.74 157.352 311.268 157.352 309.453C157.352 307.638 156.033 306.166 154.405 306.166C152.777 306.166 151.457 307.638 151.457 309.453C151.457 311.268 152.777 312.74 154.405 312.74Z" fill="#3F3D56"/>
<path d="M166.645 298.851C165.91 298.97 165.174 299.056 164.439 299.109C165.123 298.444 165.757 297.718 166.337 296.94C165.928 295.558 165.328 294.257 164.558 293.084C163.827 293.542 163.019 293.825 162.186 293.917C161.456 294.036 160.721 294.122 159.985 294.182C160.952 293.302 161.853 291.979 162.802 290.875C160.676 288.726 157.953 287.457 155.088 287.281C152.223 287.105 149.391 288.032 147.066 289.907C144.741 291.782 143.064 294.492 142.317 297.581C141.57 300.671 141.798 303.952 142.962 306.877C144.126 309.802 146.156 312.191 148.712 313.645C151.268 315.099 154.194 315.53 157.001 314.864C159.807 314.199 162.324 312.478 164.128 309.99C165.932 307.502 166.915 304.399 166.912 301.199C166.912 300.394 166.849 299.591 166.722 298.798L166.645 298.851Z" fill="#3498DB"/>
<path d="M176.472 315.18C175.72 315.696 174.872 316.011 173.993 316.1C173.264 316.219 172.528 316.311 171.793 316.364C172.574 315.582 173.304 314.738 173.975 313.838C172.198 313.321 170.312 313.562 168.686 314.514C167.06 315.465 165.81 317.059 165.182 318.983C164.553 320.908 164.591 323.024 165.288 324.919C165.984 326.814 167.29 328.352 168.948 329.23C170.607 330.109 172.5 330.266 174.257 329.671C176.015 329.076 177.51 327.772 178.45 326.013C179.391 324.254 179.709 322.167 179.344 320.16C178.978 318.153 177.954 316.37 176.472 315.16V315.18Z" fill="#3498DB"/>
<path d="M149.987 330.815C151.614 330.815 152.934 329.343 152.934 327.528C152.934 325.713 151.614 324.241 149.987 324.241C148.359 324.241 147.039 325.713 147.039 327.528C147.039 329.343 148.359 330.815 149.987 330.815Z" fill="#3F3D56"/>
<path d="M147.039 329.168C148.667 329.168 149.987 327.696 149.987 325.881C149.987 324.066 148.667 322.594 147.039 322.594C145.411 322.594 144.092 324.066 144.092 325.881C144.092 327.696 145.411 329.168 147.039 329.168Z" fill="#3F3D56"/>
<path d="M144.092 327.528C145.72 327.528 147.039 326.056 147.039 324.241C147.039 322.425 145.72 320.954 144.092 320.954C142.464 320.954 141.144 322.425 141.144 324.241C141.144 326.056 142.464 327.528 144.092 327.528Z" fill="#3F3D56"/>
<path d="M132.344 315.18C133.095 315.696 133.944 316.011 134.823 316.1C135.552 316.219 136.287 316.311 137.023 316.364C136.24 315.584 135.51 314.739 134.84 313.838C136.617 313.321 138.503 313.562 140.129 314.514C141.756 315.465 143.005 317.059 143.634 318.983C144.262 320.908 144.224 323.024 143.528 324.919C142.831 326.814 141.526 328.352 139.867 329.23C138.208 330.109 136.315 330.266 134.558 329.671C132.801 329.076 131.306 327.772 130.365 326.013C129.425 324.254 129.106 322.167 129.472 320.16C129.838 318.153 130.862 316.37 132.344 315.16V315.18Z" fill="#3498DB"/>
<path d="M152.288 347.217H159.469C163.401 347.217 167.173 348.959 169.953 352.059C172.733 355.16 174.295 359.366 174.295 363.751V385.49C174.295 386.234 174.031 386.947 173.559 387.473C173.087 387.999 172.448 388.294 171.781 388.294H139.958C139.291 388.294 138.652 387.999 138.18 387.473C137.709 386.947 137.444 386.234 137.444 385.49V363.751C137.444 361.578 137.828 359.426 138.574 357.419C139.32 355.412 140.414 353.588 141.792 352.052C143.171 350.517 144.808 349.299 146.608 348.47C148.409 347.64 150.339 347.214 152.288 347.217V347.217Z" fill="#3F3D56"/>
<g opacity="0.1">
<path opacity="0.1" d="M166.847 299.75C166.548 300.106 166.232 300.442 165.898 300.756C166.236 300.756 166.568 300.696 166.906 300.657C166.894 300.352 166.876 300.048 166.847 299.75Z" fill="black"/>
<path opacity="0.1" d="M161.474 295.822C162.215 295.769 162.945 295.683 163.68 295.564C164.34 295.471 164.985 295.275 165.596 294.982C165.296 294.321 164.951 293.686 164.564 293.084C164.195 293.334 163.795 293.524 163.378 293.646C162.796 294.427 162.159 295.154 161.474 295.822Z" fill="black"/>
<path opacity="0.1" d="M143.356 302.879C143.352 300.371 143.954 297.909 145.099 295.751C146.244 293.593 147.89 291.82 149.863 290.617C151.836 289.415 154.063 288.828 156.31 288.919C158.557 289.01 160.74 289.774 162.63 291.133L162.82 290.908C161.587 289.684 160.148 288.745 158.588 288.143C157.027 287.542 155.376 287.291 153.728 287.405C152.08 287.519 150.469 287.996 148.987 288.807C147.505 289.619 146.182 290.749 145.093 292.134C144.005 293.518 143.173 295.129 142.645 296.873C142.118 298.618 141.905 300.462 142.019 302.299C142.133 304.135 142.572 305.929 143.311 307.575C144.049 309.222 145.072 310.689 146.322 311.893C144.404 309.377 143.352 306.181 143.356 302.879Z" fill="black"/>
</g>
<g opacity="0.1">
<path opacity="0.1" d="M171.793 318.004C172.528 317.951 173.264 317.865 173.993 317.746C174.872 317.655 175.721 317.338 176.472 316.82C177.305 317.504 177.999 318.376 178.51 319.379C179.021 320.381 179.337 321.493 179.437 322.64C179.466 322.353 179.48 322.063 179.479 321.774C179.484 320.489 179.219 319.222 178.704 318.073C178.189 316.924 177.438 315.926 176.513 315.16C175.762 315.676 174.913 315.991 174.035 316.08L173.441 316.166C172.935 316.825 172.384 317.44 171.793 318.004Z" fill="black"/>
<path opacity="0.1" d="M172.089 315.2C172.335 315.203 172.581 315.223 172.825 315.26C173.21 314.803 173.59 314.314 173.975 313.838C172.885 313.513 171.742 313.472 170.636 313.719C169.529 313.966 168.488 314.493 167.594 315.261C166.699 316.028 165.975 317.014 165.478 318.144C164.98 319.273 164.722 320.515 164.724 321.774C164.724 322.052 164.724 322.323 164.759 322.594C164.942 320.568 165.793 318.689 167.147 317.322C168.502 315.956 170.263 315.2 172.089 315.2V315.2Z" fill="black"/>
</g>
<g opacity="0.1">
<path opacity="0.1" d="M137.023 318.004C136.287 317.951 135.552 317.865 134.823 317.746C133.943 317.655 133.095 317.338 132.344 316.82C131.511 317.504 130.817 318.376 130.306 319.379C129.795 320.381 129.479 321.493 129.378 322.64C129.35 322.353 129.336 322.063 129.337 321.774C129.331 320.489 129.597 319.222 130.112 318.073C130.627 316.924 131.377 315.926 132.302 315.16C133.054 315.676 133.902 315.991 134.781 316.08L135.374 316.166C135.877 316.828 136.428 317.443 137.023 318.004V318.004Z" fill="black"/>
<path opacity="0.1" d="M136.726 315.2C136.478 315.203 136.231 315.223 135.985 315.26C135.605 314.803 135.226 314.314 134.84 313.838C135.931 313.513 137.073 313.472 138.18 313.719C139.286 313.966 140.327 314.493 141.222 315.261C142.116 316.028 142.84 317.014 143.338 318.144C143.836 319.273 144.094 320.515 144.092 321.774C144.092 322.052 144.092 322.323 144.056 322.594C143.874 320.568 143.023 318.689 141.668 317.322C140.314 315.956 138.553 315.2 136.726 315.2V315.2Z" fill="black"/>
</g>
<path d="M116.741 396.244H58.8002C58.1475 396.244 57.5215 395.954 57.06 395.44C56.5984 394.925 56.3391 394.227 56.3391 393.499V362.918C56.339 362.454 56.444 361.999 56.6443 361.593C56.8447 361.187 57.1338 360.845 57.4848 360.597C57.8359 360.349 58.2374 360.205 58.6519 360.177C59.0665 360.149 59.4807 360.239 59.8559 360.437C76.5026 369.247 94.4362 372.269 115.602 360.576C115.977 360.37 116.393 360.273 116.811 360.296C117.229 360.318 117.635 360.458 117.991 360.704C118.346 360.949 118.64 361.291 118.845 361.698C119.05 362.105 119.158 362.563 119.16 363.03V393.453C119.166 393.813 119.107 394.171 118.989 394.507C118.87 394.842 118.694 395.148 118.469 395.407C118.244 395.666 117.976 395.874 117.679 396.017C117.383 396.161 117.064 396.238 116.741 396.244V396.244Z" fill="#3498DB"/>
<path opacity="0.1" d="M116.741 396.244H58.8002C58.1475 396.244 57.5215 395.954 57.06 395.44C56.5984 394.925 56.3391 394.227 56.3391 393.499V362.918C56.339 362.454 56.444 361.999 56.6443 361.593C56.8447 361.187 57.1338 360.845 57.4848 360.597C57.8359 360.349 58.2374 360.205 58.6519 360.177C59.0665 360.149 59.4807 360.239 59.8559 360.437C76.5026 369.247 94.4362 372.269 115.602 360.576C115.977 360.37 116.393 360.273 116.811 360.296C117.229 360.318 117.635 360.458 117.991 360.704C118.346 360.949 118.64 361.291 118.845 361.698C119.05 362.105 119.158 362.563 119.16 363.03V393.453C119.166 393.813 119.107 394.171 118.989 394.507C118.87 394.842 118.694 395.148 118.469 395.407C118.244 395.666 117.976 395.874 117.679 396.017C117.383 396.161 117.064 396.238 116.741 396.244V396.244Z" fill="black"/>
<path d="M87.3671 372.997C89.2602 372.997 90.7949 370.755 90.7949 367.99C90.7949 365.225 89.2602 362.984 87.3671 362.984C85.474 362.984 83.9393 365.225 83.9393 367.99C83.9393 370.755 85.474 372.997 87.3671 372.997Z" fill="#3F3D56"/>
<path d="M87.3671 366.879C89.2602 366.879 90.7949 364.637 90.7949 361.872C90.7949 359.107 89.2602 356.866 87.3671 356.866C85.474 356.866 83.9393 359.107 83.9393 361.872C83.9393 364.637 85.474 366.879 87.3671 366.879Z" fill="#3F3D56"/>
<path d="M87.3671 360.755C89.2602 360.755 90.7949 358.513 90.7949 355.748C90.7949 352.983 89.2602 350.742 87.3671 350.742C85.474 350.742 83.9393 352.983 83.9393 355.748C83.9393 358.513 85.474 360.755 87.3671 360.755Z" fill="#3F3D56"/>
<path d="M87.3671 354.637C89.2602 354.637 90.7949 352.396 90.7949 349.631C90.7949 346.866 89.2602 344.624 87.3671 344.624C85.474 344.624 83.9393 346.866 83.9393 349.631C83.9393 352.396 85.474 354.637 87.3671 354.637Z" fill="#3F3D56"/>
<path d="M87.3671 348.513C89.2602 348.513 90.7949 346.271 90.7949 343.506C90.7949 340.741 89.2602 338.5 87.3671 338.5C85.474 338.5 83.9393 340.741 83.9393 343.506C83.9393 346.271 85.474 348.513 87.3671 348.513Z" fill="#3F3D56"/>
<path d="M87.3671 342.389C89.2602 342.389 90.7949 340.147 90.7949 337.382C90.7949 334.617 89.2602 332.376 87.3671 332.376C85.474 332.376 83.9393 334.617 83.9393 337.382C83.9393 340.147 85.474 342.389 87.3671 342.389Z" fill="#3F3D56"/>
<path d="M87.3671 336.271C89.2602 336.271 90.7949 334.03 90.7949 331.265C90.7949 328.5 89.2602 326.258 87.3671 326.258C85.474 326.258 83.9393 328.5 83.9393 331.265C83.9393 334.03 85.474 336.271 87.3671 336.271Z" fill="#3F3D56"/>
<path d="M100.224 289.374C100.69 288.706 101.116 288.006 101.499 287.277L92.4851 285.624L102.235 285.703C103.175 283.43 103.689 280.967 103.743 278.464C103.797 275.962 103.39 273.474 102.549 271.153L89.4724 278.719L101.535 268.799C100.405 266.62 98.8859 264.725 97.0708 263.23C95.2557 261.735 93.184 260.673 90.9848 260.11C88.7857 259.548 86.5061 259.496 84.2882 259.958C82.0703 260.421 79.9616 261.388 78.0934 262.799C76.2252 264.21 74.6377 266.035 73.4296 268.16C72.2215 270.285 71.4188 272.665 71.0715 275.152C70.7241 277.638 70.8397 280.177 71.4108 282.612C71.982 285.046 72.9966 287.323 74.3914 289.301C73.6585 290.334 73.0301 291.454 72.5173 292.641L84.2122 299.493L71.7582 294.797C70.8853 297.683 70.6706 300.767 71.1334 303.769C71.5962 306.771 72.722 309.597 74.4092 311.992C72.5026 314.696 71.3165 317.943 70.9867 321.362C70.6568 324.782 71.1964 328.236 72.5438 331.329C73.8912 334.423 75.992 337.031 78.606 338.856C81.22 340.681 84.2417 341.649 87.3256 341.649C90.4096 341.649 93.4313 340.681 96.0453 338.856C98.6593 337.031 100.76 334.423 102.107 331.329C103.455 328.236 103.994 324.782 103.665 321.362C103.335 317.943 102.149 314.696 100.242 311.992C102.52 308.762 103.758 304.772 103.758 300.663C103.758 296.554 102.52 292.564 100.242 289.334L100.224 289.374Z" fill="#3498DB"/>
<path opacity="0.1" d="M70.8627 300.703C70.8573 304.813 72.0965 308.805 74.3795 312.032C72.4729 314.735 71.2869 317.982 70.957 321.402C70.6272 324.821 71.1668 328.275 72.5142 331.369C73.8615 334.462 75.9623 337.071 78.5763 338.896C81.1903 340.721 84.212 341.688 87.296 341.688C90.3799 341.688 93.4016 340.721 96.0156 338.896C98.6296 337.071 100.73 334.462 102.078 331.369C103.425 328.275 103.965 324.821 103.635 321.402C103.305 317.982 102.119 314.735 100.212 312.032C102.413 308.917 70.8627 298.646 70.8627 300.703Z" fill="black"/>
<path d="M116.741 397.864H58.8002C58.1475 397.864 57.5215 397.575 57.06 397.06C56.5984 396.545 56.3391 395.847 56.3391 395.119V362.918C56.339 362.454 56.444 361.999 56.6443 361.593C56.8447 361.187 57.1338 360.845 57.4848 360.597C57.8359 360.349 58.2374 360.205 58.6519 360.177C59.0665 360.149 59.4807 360.239 59.8559 360.437C76.5026 369.247 89.7037 379.518 115.602 360.576C117.138 359.452 119.16 360.986 119.16 363.03V395.106C119.163 395.828 118.911 396.523 118.458 397.039C118.005 397.556 117.388 397.852 116.741 397.864Z" fill="#3498DB"/>
<path d="M546.685 388.757L461.204 401.369L456.928 401.998L415.136 377.104V371.277L545.736 355.391L546.685 388.757Z" fill="#9C9CA1"/>
<path d="M439.356 379.749L531.96 367.573L531.011 386.641L458.879 392.54L439.356 379.749Z" fill="#939498"/>
<path opacity="0.4" d="M461.204 395.106V401.363L456.928 402.024L415.13 377.104V371.277L455.024 395.086C455.024 395.086 460.255 395.635 461.204 395.106Z" fill="black"/>
<path d="M477.614 295.802L458.423 395.04C458.229 396.034 458.253 397.064 458.492 398.046C458.731 399.027 459.178 399.929 459.796 400.677C460.413 401.425 461.183 401.996 462.041 402.342C462.898 402.688 463.817 402.799 464.721 402.666L586.135 384.743C587.192 384.587 588.189 384.103 589.011 383.345C589.834 382.587 590.448 381.586 590.784 380.457L616.979 292.363C617.268 291.386 617.34 290.344 617.189 289.329C617.037 288.314 616.666 287.355 616.108 286.535C615.55 285.714 614.822 285.058 613.986 284.622C613.15 284.185 612.231 283.982 611.309 284.03L482.904 290.829C481.654 290.895 480.459 291.418 479.503 292.316C478.547 293.215 477.883 294.44 477.614 295.802V295.802Z" fill="#3F3D56"/>
<path d="M544.328 332.413C544.626 329.252 543.391 326.517 541.571 326.304C539.75 326.091 538.032 328.48 537.734 331.64C537.436 334.8 538.671 337.535 540.492 337.749C542.313 337.962 544.03 335.573 544.328 332.413Z" fill="white"/>
</g>
<defs>
<clipPath id="clip0">
<rect width="682" height="415" fill="white"/>
</clipPath>
</defs>
</svg>
