<svg width="256" height="70" viewBox="0 0 256 70" fill="none" xmlns="http://www.w3.org/2000/svg">
<path d="M0 46.5263H255.92V42.5959L0 42.5924V46.5263Z" fill="#ED1C24"/>
<path d="M6.43326 69.8754H4.75067L0.0466309 56.0571H2.29338L5.59368 66.1131L8.88711 56.0571H11.1742L6.43326 69.8754Z" fill="#231F20"/>
<path d="M13.2068 56.0574H15.3719V69.8757H13.2068V56.0574Z" fill="#231F20"/>
<path d="M19.1687 69.8755V56.0571H28.3104V57.938H21.342V61.9742H27.2813V63.8392H21.342V67.9941H28.3104V69.8755H19.1687Z" fill="#231F20"/>
<path d="M40.1246 69.8754L33.5167 60.1518V69.8754H31.343V56.0571H33.335L39.9416 65.7626V56.0571H42.1153V69.8754H40.1246Z" fill="#231F20"/>
<path d="M54.6897 69.8754L48.0766 60.1518V69.8754H45.9067V56.0571H47.897L54.5066 65.7626V56.0571H56.6808V69.8754H54.6897Z" fill="#231F20"/>
<path d="M64.9326 59.1792L62.7048 65.3108H67.1029L64.9326 59.1792ZM68.6888 69.8756L67.7014 67.1003H62.0603L61.078 69.8756H58.7668L64.011 56.0573H65.7593L71.0004 69.8756H68.6888Z" fill="#231F20"/>
<path d="M77.9722 56.0574H80.1403V69.8757H77.9722V56.0574Z" fill="#231F20"/>
<path d="M92.7127 69.8754L86.1073 60.1518V69.8754H83.9409V56.0571H85.9281L92.5331 65.7626V56.0571H94.7029V69.8754H92.7127Z" fill="#231F20"/>
<path d="M102.295 69.9999C100.146 69.9999 98.6009 69.5094 97.2397 68.167L98.683 66.7904C99.7275 67.8056 100.867 68.1129 102.335 68.1129C104.207 68.1129 105.288 67.3325 105.288 65.9953C105.288 65.3935 105.113 64.8856 104.729 64.5585C104.367 64.224 104.005 64.0901 103.163 63.9761L101.477 63.7439C100.306 63.5879 99.3847 63.2018 98.7612 62.6342C98.0596 61.996 97.7137 61.1237 97.7137 59.9976C97.7137 57.5915 99.5256 55.9397 102.498 55.9397C104.386 55.9397 105.713 56.4025 106.939 57.5135L105.556 58.8303C104.667 58.0148 103.647 57.7605 102.445 57.7605C100.75 57.7605 99.8298 58.6929 99.8298 59.9205C99.8298 60.4222 99.9888 60.8689 100.369 61.2026C100.727 61.5107 101.313 61.7455 101.976 61.84L103.606 62.0692C104.934 62.2655 105.675 62.5792 106.274 63.0991C107.06 63.7604 107.441 64.7526 107.441 65.9403C107.441 68.4816 105.288 69.9999 102.295 69.9999Z" fill="#231F20"/>
<path d="M115.319 69.9999C112.405 69.9999 110.193 68.0691 110.193 65.2201V56.0572H112.37V65.1205C112.37 66.9672 113.528 68.1129 115.319 68.1129C117.106 68.1129 118.285 66.9672 118.285 65.1205V56.0572H120.462V65.2201C120.462 68.0691 118.232 69.9999 115.319 69.9999Z" fill="#231F20"/>
<path d="M129.419 57.9382H126.201V62.2655H129.419C130.861 62.2655 131.848 61.4695 131.848 60.1124C131.848 58.7506 130.861 57.9382 129.419 57.9382ZM131.925 69.8755L128.92 64.0555H126.201V69.8755H124.036V56.0572H129.585C132.292 56.0572 134.018 57.7406 134.018 60.0934C134.018 62.0692 132.776 63.3349 131.168 63.7604L134.46 69.8755H131.925Z" fill="#231F20"/>
<path d="M141.71 59.1792L139.48 65.3108H143.88L141.71 59.1792ZM145.472 69.8756L144.481 67.1003H138.838L137.855 69.8756H135.546L140.789 56.0573H142.531L147.781 69.8756H145.472Z" fill="#231F20"/>
<path d="M158.645 69.8754L152.035 60.1518V69.8754H149.864V56.0571H151.855L158.465 65.7626V56.0571H160.633V69.8754H158.645Z" fill="#231F20"/>
<path d="M169.054 69.9999C167.563 69.9999 166.283 69.4648 165.292 68.5184C163.889 67.16 163.91 65.6257 163.91 62.9661C163.91 60.3052 163.889 58.7726 165.292 57.4077C166.283 56.4662 167.563 55.9397 169.054 55.9397C170.841 55.9397 171.98 56.5589 173.05 57.5663L171.605 58.9828C170.863 58.2674 170.24 57.8233 169.054 57.8233C168.212 57.8233 167.446 58.1348 166.94 58.6531C166.245 59.397 166.104 60.1874 166.104 62.9661C166.104 65.7427 166.245 66.5391 166.94 67.2788C167.446 67.8056 168.212 68.1129 169.054 68.1129C170.24 68.1129 170.863 67.6631 171.605 66.9486L173.05 68.3642C171.98 69.3725 170.841 69.9999 169.054 69.9999Z" fill="#231F20"/>
<path d="M176.023 69.8755V56.0571H185.159V57.938H178.19V61.9742H184.138V63.8392H178.19V67.9941H185.159V69.8755H176.023Z" fill="#231F20"/>
<path d="M201.593 68.4042C200.586 69.4293 199.267 70 197.701 70C196.21 70 194.93 69.4644 193.939 68.5185C192.533 67.1602 192.559 65.6258 192.559 62.9658C192.559 60.3054 192.533 58.7723 193.939 57.4079C194.93 56.4659 196.169 55.9394 197.701 55.9394C199.643 55.9394 200.736 56.5209 202.014 57.7606L200.55 59.1792C199.643 58.3061 198.987 57.8234 197.701 57.8234C196.859 57.8234 196.069 58.1536 195.57 58.6744C194.868 59.4132 194.728 60.1875 194.728 62.9658C194.728 65.7424 194.868 66.5388 195.57 67.2784C196.069 67.8053 196.859 68.1125 197.701 68.1125C198.645 68.1125 199.424 67.7663 199.985 67.1389C200.511 66.5765 200.689 65.8061 200.689 64.9408V64.1886H197.701V62.4077H202.857V64.4802C202.857 66.2693 202.538 67.4266 201.593 68.4042Z" fill="#231F20"/>
<path d="M211.403 57.9382H208.189V62.2655H211.403C212.847 62.2655 213.831 61.4695 213.831 60.1124C213.831 58.7506 212.847 57.9382 211.403 57.9382ZM213.916 69.8755L210.895 64.0555H208.189V69.8755H206.019V56.0572H211.559C214.273 56.0572 215.998 57.7406 215.998 60.0934C215.998 62.0692 214.759 63.3349 213.15 63.7604L216.444 69.8755H213.916Z" fill="#231F20"/>
<path d="M225.988 58.6744C225.479 58.1536 224.7 57.8234 223.858 57.8234C223.008 57.8234 222.226 58.1536 221.727 58.6744C221.025 59.4132 220.885 60.1875 220.885 62.9658C220.885 65.7428 221.025 66.5145 221.727 67.2589C222.226 67.7824 223.008 68.1125 223.858 68.1125C224.7 68.1125 225.479 67.7824 225.988 67.2589C226.691 66.5145 226.83 65.7428 226.83 62.9658C226.83 60.1875 226.691 59.4132 225.988 58.6744ZM227.626 68.5185C226.643 69.4644 225.379 70 223.858 70C222.328 70 221.087 69.4644 220.096 68.5185C218.691 67.1602 218.713 65.6258 218.713 62.9658C218.713 60.3054 218.691 58.7728 220.096 57.4079C221.087 56.4659 222.328 55.9394 223.858 55.9394C225.379 55.9394 226.643 56.4659 227.626 57.4079C229.038 58.7728 229.001 60.3054 229.001 62.9658C229.001 65.6258 229.038 67.1602 227.626 68.5185" fill="#231F20"/>
<path d="M237.171 69.9999C234.259 69.9999 232.051 68.0691 232.051 65.2201V56.0572H234.221V65.1205C234.221 66.9672 235.384 68.1129 237.171 68.1129C238.957 68.1129 240.151 66.9672 240.151 65.1205V56.0572H242.314V65.2201C242.314 68.0691 240.087 69.9999 237.171 69.9999Z" fill="#231F20"/>
<path d="M251.193 57.9382H248.065V62.5446H251.193C252.706 62.5446 253.728 61.7061 253.728 60.2424C253.728 58.7918 252.706 57.9382 251.193 57.9382ZM251.318 64.4446H248.065V69.8755H245.894V56.0572H251.318C254.111 56.0572 255.899 57.8428 255.899 60.2424C255.899 62.6594 254.111 64.4446 251.318 64.4446" fill="#231F20"/>
<path d="M168.333 22.6365C168.558 22.1022 171.284 15.5365 171.612 14.7353C171.961 15.5209 174.906 22.0866 175.147 22.6365H168.333ZM173.013 8.69942H170.303L159.797 33.2077H163.78C163.78 33.2077 166.697 26.4144 166.814 26.1553H176.752C176.861 26.4066 179.945 33.2077 179.945 33.2077H183.94L173.013 8.69942ZM152.577 18.8746C150.366 17.6176 148.469 16.5495 148.469 14.6807C148.469 13.1256 149.937 12.0493 152.056 12.0493C153.991 12.0493 155.836 12.8665 157.538 14.4762L157.897 14.8297V10.3022L157.811 10.2467C156.113 9.11582 154.216 8.51917 152.336 8.51917C147.779 8.51917 144.82 11.1107 144.82 15.1283C144.82 18.7645 147.928 20.6338 150.669 22.2912C153.013 23.6968 155.224 25.024 155.224 27.1996C155.224 28.2915 154.216 30.0035 151.526 30.0035C149.22 30.0035 147.09 28.8253 145.357 26.6103L144.968 26.1237V31.205L145.043 31.2756C147.09 32.8073 149.283 33.5305 151.911 33.5305C155.93 33.5305 158.862 30.7024 158.862 26.8148C158.862 22.4004 155.521 20.5237 152.577 18.8746V18.8746ZM137.18 27.0185C136.456 26.1865 121.222 8.83331 121.222 8.83331H118.161V33.2077H121.837V15.1439C122.554 15.9763 137.585 33.2077 137.585 33.2077H140.848V8.83331H137.18V27.0185ZM104.112 22.6833H113.94V19.1493H104.112V12.3638H114.294V8.83331H100.225V33.2077H114.61V29.6893H104.112V22.6833ZM89.3215 19.33H85.6143V12.3638H89.4538C92.9393 12.3638 93.3174 14.7587 93.3174 15.8034C93.3174 18.0106 91.8256 19.33 89.3215 19.33V19.33ZM89.4538 8.83331H81.736V33.2077H85.6143V22.8566H88.9979C94.2051 22.8566 97.3163 20.272 97.3163 15.9373C97.3163 12.5051 95.2488 8.83331 89.4538 8.83331V8.83331ZM65.3961 18.5449C65.0773 18.1436 57.5301 8.83331 57.5301 8.83331H53.975V33.2077H57.8571V14.8921C58.4414 15.6153 65.0068 23.838 65.0068 23.838H65.7819C65.7819 23.838 72.343 15.6153 72.9278 14.8921V33.2077H76.806V8.83331H73.2861C73.2861 8.83331 65.7119 18.1436 65.3961 18.5449V18.5449ZM37.6234 29.9333C32.4214 29.9333 28.4959 26.1085 28.4959 21.0264C28.4959 15.8588 32.3355 12.1281 37.6234 12.1281C42.9316 12.1281 46.7789 15.8588 46.7789 21.0264C46.7789 26.1085 42.8418 29.9333 37.6234 29.9333ZM37.6234 8.51917C30.1471 8.51917 24.5086 13.9029 24.5086 21.0264C24.5086 27.0978 29.0798 33.5305 37.5457 33.5305C46.2297 33.5305 50.7623 27.2468 50.7623 21.0264C50.7623 13.7855 45.229 8.51917 37.6234 8.51917V8.51917ZM13.6869 29.9333C8.09084 29.9333 4.18126 26.2805 4.18126 21.0576C4.18126 15.9607 8.20771 12.1281 13.5464 12.1281C16.2683 12.1281 18.7841 12.8816 21.7127 14.5862L22.0474 14.7665V10.5613L21.9146 10.5063C18.5851 9.10802 16.0892 8.51917 13.5777 8.51917C5.82046 8.51917 0.181885 13.9341 0.181885 21.3721C0.181885 26.0765 3.76061 33.5305 13.3711 33.5305C17.5182 33.5305 20.1509 32.4542 22.1639 31.4017L22.2889 31.3385V27.0423L21.9537 27.2624C19.2902 28.9826 16.3581 29.9333 13.6869 29.9333" fill="#00813C"/>
<path d="M197.959 33.0978L199.314 33.2391C199.314 33.2391 220.046 33.1139 221.869 33.1056C214.189 27.4433 203.251 19.4164 202.484 19.0628C201.417 18.584 200.303 18.3405 199.173 18.3405C195.101 18.3405 191.931 21.5842 191.931 25.7309C191.931 29.972 194.922 32.4934 197.959 33.0978Z" fill="#00813C"/>
<path d="M212.523 5.88808C209.236 3.47677 204.766 4.21512 202.351 7.56885C201.307 9.0061 200.872 10.5062 200.872 11.9317C200.872 13.9188 201.713 15.7638 202.936 17.0997L203.94 18.0105C203.94 18.0105 220.766 30.2161 222.239 31.2915C219.354 22.1576 215.186 9.17899 214.766 8.44065C214.197 7.41156 213.442 6.55623 212.523 5.88808Z" fill="#00813C"/>
<path d="M221.923 0.358807C218.27 1.52915 216.736 4.63114 216.736 7.51388C216.736 7.81242 216.751 8.10273 216.783 8.39348L217.063 9.72847C217.063 9.72847 223.41 29.6265 223.963 31.3705C227.024 22.2911 231.308 9.3671 231.409 8.5109C231.445 8.1816 231.456 7.84362 231.456 7.51388C231.456 6.69668 231.339 5.88814 231.098 5.10257C229.867 1.19161 225.832 -0.882163 221.923 0.358807Z" fill="#00813C"/>
<path d="M248.745 18.3405C247.621 18.3405 246.511 18.584 245.366 19.0944C244.672 19.4164 233.73 27.4433 226.058 33.1056C227.878 33.1139 248.622 33.2391 248.622 33.2391C248.622 33.2391 249.965 33.0978 250.015 33.0818C253.002 32.4938 256 29.972 256 25.7309C256 21.5842 252.807 18.3405 248.745 18.3405Z" fill="#00813C"/>
<path d="M247.048 11.9394C247.048 10.506 246.615 9.00594 245.575 7.56868C243.154 4.21494 238.691 3.4766 235.397 5.88791C234.497 6.55606 233.73 7.41139 233.11 8.49551C232.695 9.25768 227.85 24.4349 225.669 31.2914C229.295 28.6678 243.982 18.0103 243.982 18.0103C243.982 18.0103 244.988 17.0995 245.019 17.0523C246.222 15.7485 247.048 13.9187 247.048 11.9394Z" fill="#00813C"/>
</svg>
