<svg width="87" height="70" viewBox="0 0 87 70" fill="none" xmlns="http://www.w3.org/2000/svg">
<path d="M16.5259 62.0474L16.5347 56.1078C20.2866 56.1078 21.6628 55.9188 22.3151 60.4854H22.7128V55.4033L12.496 55.4081V56.1078H14.265V69.1788H12.3147V69.8675H22.8437V64.5258H22.3151C21.7917 68.5659 20.7599 69.181 17.8651 69.181H16.5259V62.8294C16.5648 62.8294 17.0447 62.8294 17.3023 62.8294C18.6003 62.8609 19.3401 63.6133 19.6043 65.8297H20.0824L20.0778 59.2634C20.0707 59.275 19.6089 59.2634 19.6089 59.2634C19.6089 59.2952 19.5149 62.086 17.2446 62.0474H16.5259Z" fill="#C52424"/>
<path d="M12.3512 62.3071H6.58663V62.9544H8.56063V67.6559C8.22703 68.8507 6.45382 69.3498 5.92496 69.3498C2.24445 69.3498 2.50682 64.0032 2.50682 62.5716C2.50682 61.2628 2.37563 55.7909 5.92496 55.7909C8.42712 55.7909 9.74334 58.2622 10.272 60.4831H10.6697C10.6697 59.5691 10.6856 55.2166 10.6761 55.2278C10.6856 55.1933 8.95993 56.4546 8.95581 56.4359C8.99463 56.4273 8.16775 55.2667 5.92496 55.2667C1.58094 55.2667 -0.0116529 59.5691 6.41255e-05 62.5716C0.0207413 65.319 1.29583 70 5.92496 70C7.38204 70 8.40648 69.2633 8.95581 68.4286C8.95993 68.4106 10.7914 69.8627 10.7956 69.8675V62.9544H12.3512V62.3071Z" fill="#C52424"/>
<path d="M62.7115 64.6512L64.8135 58.3995L67.0538 64.6512H62.7115ZM54.5486 62.1542H52.1848V56.0985H55.208C56.9816 56.3653 57.0551 58.3995 57.0551 59.0468C57.0551 60.6156 56.396 62.1542 54.5486 62.1542ZM79.7078 64.5258C79.1844 68.5659 78.1528 69.1699 75.2579 69.1699H75.0809V56.101H76.9235V55.3965H70.8674V56.101H72.71V69.1699H71.2491L65.8704 55.0066H65.0776C65.0964 54.9978 60.6094 67.8591 60.6 67.8951C60.6094 67.8591 60.2624 68.9989 59.5225 69.1402C58.8426 69.1747 58.8932 68.8211 58.8932 68.6954V66.2196C58.8932 65.5698 58.8426 64.0926 58.1627 63.415C57.4 62.6514 56.0948 62.5967 56.1249 62.5668C56.1249 62.5668 59.4331 61.8899 59.4331 58.7688C59.4331 56.5819 57.9004 55.4945 55.3389 55.3988H48.0696V56.1033H49.9287V69.1747C49.9287 69.1747 48.1066 69.1747 48.0696 69.1747V69.8676H54.0317V69.1747C53.9952 69.1747 52.173 69.1747 52.173 69.1747V62.8885C52.1618 62.8885 54.5208 62.8885 54.652 62.8885C58.955 63.2422 53.9145 69.8744 59.5525 69.8676H63.1067V69.1699C62.9091 69.1699 61.6064 69.2084 61.5258 68.3078C61.4711 67.656 62.3827 65.319 62.3827 65.319H67.2214C67.2191 65.3101 68.7265 69.1747 68.74 69.1747H67.0538V69.8676H80.2366V64.5258H79.7078" fill="#C52424"/>
<path d="M40.8996 56.0985C44.6513 56.0985 46.0387 55.9189 46.6916 60.4854H47.0868V55.4034H32.1897V56.0985H32.5807C33.1043 56.0985 34.3516 56.1377 34.4251 57.2273H34.4228V65.5652L27.4551 55.4034H23.6597V56.0985H24.2889C25.0376 56.0985 26.0876 56.1307 26.134 57.2273V67.9116C26.134 68.9535 24.5625 69.3498 23.9055 69.3498H23.8983V69.8676H29.0306V69.3498C28.3738 69.3498 26.7911 68.9535 26.7911 67.9116L26.8092 58.5039C29.5682 62.4186 34.7745 69.8744 34.8227 69.8676H35.0845V57.2273C35.1556 56.1377 36.4036 56.0985 36.9295 56.0985H38.6386V69.1788H36.6883V69.8676H47.2199V64.5258H46.6916C46.1676 68.5659 45.136 69.1811 42.241 69.1811H40.8996V62.8295C40.9384 62.8295 41.4188 62.8295 41.6759 62.8295C42.9762 62.8609 43.7137 63.6133 43.9779 65.8297H44.4583L44.4537 59.2634C44.4443 59.275 43.9825 59.2634 43.9825 59.2634C43.9825 59.2952 43.8908 62.086 41.6212 62.0475H40.8996V56.0985" fill="#C52424"/>
<path d="M86.8579 56.101V55.394H80.9141V56.101H82.782L82.7867 69.163H80.9141V69.8675H86.8579V69.163H84.9923V56.101H86.8579Z" fill="#C52424"/>
<path d="M65.6775 43.3832C65.8522 42.9321 66.1969 42.6466 66.6721 42.5557L71.4808 41.4909L71.0468 37.2364L71.0309 37.1432C70.9132 36.5869 70.5551 34.886 68.3219 34.7056C59.7249 34.0169 57.7304 32.7515 55.642 31.4131C55.6402 31.4067 55.6355 31.3997 55.633 31.3928L55.6213 31.3997L55.486 31.3128C53.2552 29.8787 51.0379 29.8675 50.8197 29.8746C48.3848 29.8746 45.3035 30.8317 45.0535 30.9117C44.3089 31.126 43.6125 31.3495 42.9421 31.5638C40.2495 32.4211 37.924 33.1664 34.0185 33.0504L33.3041 33.0298L33.12 33.7141C32.9799 34.2405 31.8865 38.5246 32.9411 41.279C31.9966 42.0173 31.9966 42.8725 32.0014 42.9863C32.0407 43.9284 31.8178 44.1608 31.7443 44.236C31.2915 44.6988 29.7959 44.7606 28.5348 44.7606C28.5299 44.7606 28.5231 44.7606 28.5182 44.7606H28.0589L27.7879 45.1295C27.0116 46.1924 25.3316 46.4405 24.2567 46.1697C23.7836 44.7419 23.7696 43.65 24.2266 42.998C24.7642 42.2298 25.9063 42.1452 26.3703 42.1452H26.6414C27.783 42.1452 28.7135 41.2196 28.7135 40.0796V32.4095C29.0607 31.8785 29.3412 31.2626 29.5847 30.5697C31.4707 30.2708 32.9135 28.6844 32.9135 26.7736C32.9135 26.0417 32.6952 25.3324 32.3049 24.7284C34.0487 23.8942 35.5397 22.1928 35.5397 19.9607C35.5397 17.7311 34.4068 16.7074 33.3342 16.0374C33.637 15.1824 34.1358 13.6753 34.4758 12.1588L35.9854 6.79428C36.6583 4.68955 38.4228 3.33308 40.4813 3.33308H67.0626C65.9393 4.90375 64.3407 5.64736 62.1281 5.64736H46.041L45.2005 7.43224H59.6167C58.4844 9.22237 56.8254 10.0635 54.4703 10.0635H44.0171L43.1763 11.849H52.5041C51.3738 13.5702 49.7334 14.3843 47.4219 14.3843H41.724L40.8836 16.1693H46.8568C46.9121 16.2423 47.0615 16.5137 47.0615 17.2387C47.0615 18.3855 46.0892 19.3182 44.8947 19.3182C44.4835 19.3182 44.1343 19.2248 43.5186 18.9762C43.2544 18.8641 42.9903 18.7549 42.7261 18.6429L41.3406 19.8769C41.6 19.9883 41.8598 20.0957 42.1169 20.2049V20.2072C43.3185 20.7225 43.9873 20.9915 44.8947 20.9915C45.9952 20.9915 46.9856 20.5399 47.6884 19.8173C48.7129 19.8832 50.365 20.018 51.9619 20.1481C53.8734 20.3053 55.679 20.4512 56.6118 20.5013C57.0782 20.5264 57.5147 20.5469 57.9351 20.5672C58.728 20.6065 59.4538 20.6427 60.1772 20.6951C63.8049 26.5412 65.6658 27.3094 72.6942 28.1463C73.1994 29.0447 73.6564 29.9977 74.091 30.9551V42.3391L74.0934 42.4049C74.1322 42.9298 74.1322 43.1054 74.0587 43.2011C73.8152 43.518 72.7306 43.9669 72.3542 44.1222L66.431 46.3383C65.6452 45.2802 65.3652 44.1787 65.6775 43.3832ZM64.3954 46.4749H52.6854L57.7028 41.2196C58.7162 40.1799 59.0403 38.9302 58.6126 37.704C58.3693 36.9972 57.7077 35.6384 57.0182 34.2499C59.0103 35.1662 62.0293 35.9938 68.1748 36.484C68.9147 36.5454 69.11 36.7964 69.257 37.4624L69.5258 40.0953L66.3139 40.8069C65.2388 41.0164 64.393 41.7191 63.996 42.736C63.5549 43.8577 63.7061 45.1774 64.3954 46.4749V46.4749ZM43.275 46.4749C42.9509 45.2118 43.082 44.2016 43.6631 43.5431C44.2195 42.9115 45.0716 42.7196 45.6759 42.8041L49.0989 43.4357L49.1841 43.4514H49.6622L52.0789 40.8641L52.1018 40.839C52.5154 40.3621 53.7724 38.9145 52.4901 37.0677L49.2576 31.7827C49.7929 31.7072 50.328 31.6596 50.8268 31.6596L50.8474 31.6571C50.8633 31.6619 52.4853 31.6368 54.2222 32.6377C54.4567 33.1391 54.7832 33.798 55.1485 34.5324C55.826 35.8958 56.6713 37.5944 56.9081 38.2829C56.9816 38.4972 57.2111 39.1539 56.4006 39.9861L50.2039 46.4749H43.275ZM42.3057 42.3686C41.6528 43.1094 41.0189 44.4022 41.4299 46.4749H30.4044C31.5878 46.3589 32.4494 46.085 33.0447 45.4715C33.7659 44.7262 33.8304 43.707 33.8052 42.9799C33.8304 42.9157 33.9498 42.6717 34.4898 42.4277L35.4384 41.9993L34.8687 41.1283C33.9269 39.692 34.3379 36.5524 34.7032 34.847C34.731 34.847 34.7609 34.847 34.788 34.847C38.5262 34.847 40.9454 34.0764 43.493 33.2622C44.1595 33.0504 44.8465 32.8315 45.57 32.622L45.5911 32.6149C45.607 32.6103 46.3516 32.3757 47.3668 32.1404L50.9621 38.0187L50.9945 38.0665C51.3526 38.5747 51.3968 38.9077 50.7439 39.6623L48.9428 41.5912L45.9904 41.046L45.9628 41.0415C44.6305 40.839 43.1925 41.3584 42.3057 42.3686V42.3686ZM22.745 41.9813C21.9799 43.0732 21.8857 44.585 22.4621 46.4749H20.5989V32.0424C21.2677 31.9426 21.9845 31.7529 22.6533 31.4498C22.6163 32.0791 22.5292 32.5759 22.4098 33.2419C22.3822 33.3971 22.3544 33.5588 22.3245 33.7298L22.1451 34.7715H23.2138C24.8083 34.7715 25.9956 34.523 26.9102 34.056V40.0796C26.9102 40.2348 26.791 40.3597 26.6414 40.3597H26.3703C24.7876 40.3597 23.4661 40.9505 22.745 41.9813V41.9813ZM18.7956 44.9106L10.3063 42.7196L1.8174 44.9106V29.8424L10.3063 27.6559L18.7956 29.8424V44.9106ZM2.90847 46.4749L10.3063 44.5646L17.7064 46.4749H2.90847ZM5.86805 24.293C6.22162 23.7546 7.03261 23.2896 8.04835 23.4653L8.81524 23.5978L9.05879 22.8634C9.12354 22.665 9.21065 22.5214 9.32987 22.4076C9.54583 22.2045 9.86749 22.111 10.2792 22.1199C11.3631 22.1566 12.7234 22.9067 13.8262 24.0809C14.228 24.507 14.5821 25.002 14.8991 25.5034C14.9614 25.6085 15.0326 25.7223 15.0967 25.8228C15.1838 25.9617 15.2596 26.0761 15.2761 26.1035C15.315 26.1716 15.8594 26.9854 15.8225 27.0378C16.1949 26.5184 16.5671 25.9984 16.9418 25.4783C16.9505 25.4649 16.9347 25.417 16.9048 25.3488C16.82 25.1707 16.6224 24.8609 16.503 24.6781C16.4754 24.6349 16.4476 24.5893 16.4178 24.544C16.4178 24.5415 16.4129 24.5369 16.4129 24.5347C16.4019 24.5164 16.3514 24.4389 16.2847 24.336C16.1607 24.1448 15.9812 23.8645 15.9031 23.7093L18.2534 19.9836C18.8391 20.1044 19.3378 20.1231 19.5768 20.1231H19.6342C22.9473 20.1231 26.3726 18.2262 26.3726 15.0522V14.977C26.3315 14.1131 26.1682 13.2877 26.0374 12.624C25.9522 12.1862 25.8693 11.7761 25.8693 11.5705C25.8693 11.222 26.3609 10.8362 27.0667 10.8362H28.1396L27.6548 8.08245C29.1617 6.98106 30.0874 5.18917 30.0417 3.47433C31.6637 4.70998 32.8101 6.85323 33.0194 9.13307C33.0812 9.79438 32.95 10.7224 32.7341 11.6961L32.6194 12.1039L32.6378 12.111C32.2541 13.7003 31.6866 15.3346 31.388 16.1103L31.1102 16.8283L31.7855 17.2065C32.9941 17.8864 33.7358 18.3832 33.7358 19.9607C33.7358 21.7738 32.0931 23.1623 30.5058 23.4564L28.3349 23.8597L30.1703 25.075C30.761 25.4649 31.1102 26.1012 31.1102 26.7736C31.1102 27.911 30.1356 28.8368 28.9389 28.8368H28.2472L28.0518 29.466C27.3766 31.6461 26.6463 32.7107 24.2914 32.9389C24.3989 32.2777 24.4747 31.639 24.4747 30.7385C24.4747 30.5289 24.4565 29.9337 24.4471 29.7444L24.3442 27.7127L22.9032 29.163C22.4162 29.6557 21.5505 30.0474 20.5989 30.2323V28.4633L10.3063 25.8116L6.64438 26.7553C5.82877 25.9434 5.66335 24.6028 5.86805 24.293ZM16.9829 17.7311C17.0082 17.608 17.1093 17.51 17.2152 17.5123L18.7655 17.5624C20.6566 17.4966 22.5797 16.7255 22.7955 14.772C22.7955 13.4494 21.851 12.1634 20.5164 12.1634C19.8019 12.1634 19.0003 12.6539 18.0974 13.2462C17.5093 13.6315 17.0447 13.9372 16.6934 13.9372C16.4548 13.9372 16.2613 13.7797 16.2613 13.6502C16.2613 13.6297 16.2659 13.6064 16.273 13.5859L17.2635 12.2703L16.4083 11.7006C16.2247 11.5798 15.942 11.3563 15.9103 11.1923C15.896 11.1123 16.0113 10.9711 16.0479 10.9302C16.3994 10.5193 16.8083 10.0179 17.2194 9.40214C17.4723 9.05136 17.617 8.85758 18.0423 8.85758C18.4604 8.85758 18.8002 9.19027 18.8002 9.59826C18.8002 9.86967 19.1014 10.0839 19.4731 10.0839C19.843 10.0839 20.0107 9.82181 20.2407 9.59826C20.2407 9.59826 21.123 8.79571 20.6566 8.41515C20.1235 7.98207 17.9846 8.86633 18.5796 6.91744L18.7267 6.63902C18.9562 6.34018 19.979 5.58782 22.0922 5.58782C22.4922 5.58782 22.9149 5.61759 23.3466 5.67012L23.6614 5.71098L28.1483 2.96595C28.1879 3.05933 28.2012 3.1253 28.2012 3.1253L28.206 3.15273C28.4383 4.50043 27.5831 6.10321 26.2162 6.883L25.6675 7.19293L26.0211 9.20195C24.8701 9.5504 24.0683 10.4674 24.0683 11.5705C24.0683 11.9493 24.1553 12.3983 24.2684 12.966C24.3924 13.6001 24.5346 14.3132 24.5712 15.041C24.5712 17.1294 21.6674 18.5109 19.2092 18.4311H19.1451C19.0437 18.4263 17.4794 18.3032 17.0953 18.0049C17.0199 17.9477 16.9622 17.8246 16.9829 17.7311V17.7311ZM20.6977 3.79126C20.9805 3.43347 21.44 3.03657 21.9916 2.67411C22.4233 2.39161 22.9839 2.14063 23.5307 1.98304C24.4012 1.73731 25.401 1.71863 26.4321 1.91708L23.2527 3.86189C22.855 3.82337 22.4667 3.80294 22.0922 3.80294C21.5528 3.80294 21.0566 3.84613 20.6012 3.91909C20.6336 3.8759 20.666 3.83212 20.6977 3.79126V3.79126ZM69.1694 3.33308H81.1623C80.039 4.90609 78.4374 5.64736 76.2254 5.64736H67.3708C68.076 5.03391 68.6759 4.26113 69.1694 3.33308ZM68.5677 10.0635H59.7131C60.4965 9.38172 61.1494 8.50153 61.6687 7.43224H73.714C72.5812 9.22237 70.9227 10.0635 68.5677 10.0635ZM61.5193 14.3843H52.667C53.4252 13.7232 54.0593 12.875 54.5716 11.849H66.6009C65.4729 13.5702 63.8325 14.3843 61.5193 14.3843ZM63.5549 21.0873C66.3598 21.5479 68.6571 22.7993 70.3827 24.8105C70.7527 25.2414 71.1062 25.6995 71.4579 26.1945C66.7392 25.5811 65.0965 24.8995 62.4586 20.9257C62.8103 20.9713 63.1732 21.0237 63.5549 21.0873ZM82.3822 40.3579C82.5545 40.6359 82.7039 40.8956 82.8462 41.1443C83.0232 41.4541 83.1956 41.7554 83.3979 42.07C82.0334 41.9836 80.9994 41.2335 80.0413 39.8151C80.9235 39.5075 81.9916 39.7241 82.3822 40.3579V40.3579ZM71.1638 46.4749L73.0041 45.7861L73.0318 45.7775C75.6437 44.7033 76.016 44.0328 75.8943 42.3092V35.3395C77.8816 40.3486 79.7584 43.8689 83.6137 43.8689C84.1354 43.8689 84.6959 43.8053 85.2976 43.668L86.8003 43.3306L85.7664 42.2002C85.107 41.477 84.7853 40.9166 84.4177 40.2688C84.2642 40.0021 84.1078 39.7259 83.9196 39.4207C83.0162 37.9708 80.873 37.4781 79.1362 38.2485C78.348 36.6961 77.5529 34.6735 76.5995 32.1749L76.3907 31.6986C76.2272 31.3267 76.0619 30.9503 75.8943 30.5743V30.5102H75.8643C75.2738 29.1929 74.6421 27.868 73.8887 26.6277C73.2017 25.4993 72.5054 24.5275 71.7567 23.6544C69.7464 21.3132 67.0879 19.8563 63.8508 19.3246C61.6134 18.9598 60.0278 18.8828 58.0222 18.7847C57.6063 18.7661 57.1723 18.7432 56.7083 18.7181C55.8008 18.668 53.9263 18.518 52.1113 18.3675C50.8867 18.2695 49.6323 18.1666 48.6465 18.0937C48.7129 17.8199 48.7524 17.5351 48.7524 17.2387C48.7524 16.8399 48.7154 16.4863 48.6442 16.1693H61.5193C64.8388 16.1693 67.2397 14.7124 68.6712 11.8465C71.9701 11.8169 74.3551 10.3302 75.7655 7.43224H76.2254C79.6596 7.43224 82.1157 5.87733 83.5267 2.80836L84.1054 1.54528H40.4813C37.6141 1.54528 35.1744 3.40137 34.2598 6.27189L34.2322 6.37229C33.4899 4.32008 32.1323 2.57839 30.3934 1.55228C27.9737 0.122861 25.2216 -0.355753 23.0296 0.26878C22.3038 0.475985 21.5822 0.79993 20.9963 1.18516C20.4936 1.51377 19.7883 2.04257 19.2755 2.6922C18.7198 3.40371 18.1799 4.26346 17.7845 5.06602C17.5341 5.27089 17.3388 5.48101 17.2035 5.68355L16.6794 6.65712L16.6541 6.71198C16.0295 8.11164 15.269 9.08112 14.6763 9.76928C14.0881 10.4487 14.0581 11.0942 14.1364 11.5156C14.2239 11.9785 14.4739 12.355 14.7404 12.6397L14.7245 12.6673C14.5497 12.9637 14.4603 13.3034 14.4603 13.6502C14.4603 14.7925 15.462 15.6561 16.6934 15.6561C17.5892 15.6561 18.3198 15.2412 19.0943 14.733C19.409 14.528 20.243 13.9781 20.5164 13.9484C20.8612 13.9484 21.1758 14.259 21.1758 14.6009C21.1758 15.5355 19.9584 16.0415 19.0874 16.1032L17.3158 16.2925C16.0407 16.411 15.4367 17.0816 15.4367 17.681C15.4367 18.2827 15.7285 18.6224 15.9307 18.8233L16.0619 18.9576L16.5117 19.3545L14.6326 22.3575C13.2935 21.1258 11.7266 20.3805 10.3361 20.3374C9.43809 20.3075 8.66179 20.5766 8.08946 21.1124C7.92425 21.2676 7.77721 21.4453 7.65547 21.6413C7.64376 21.6413 7.63253 21.6413 7.62076 21.6413C6.13686 21.6413 4.94172 22.4304 4.3584 23.3169C3.722 24.2836 3.94944 25.9599 4.75815 27.241L0.0136719 28.4633V50.9617H87.0003V46.4749H71.1638" fill="#C52424"/>
<path d="M16.9165 32.1568L11.2439 30.6951V32.5396L16.9165 34.0011V32.1568Z" fill="#C52424"/>
<path d="M3.69897 34.0011L9.37164 32.5396V30.6951L3.69897 32.1568V34.0011Z" fill="#C52424"/>
<path d="M3.69897 37.7104L9.37164 36.249V34.4021L3.69897 35.8636V37.7104Z" fill="#C52424"/>
<path d="M16.9165 35.8636L11.2439 34.4021V36.249L16.9165 37.7104V35.8636Z" fill="#C52424"/>
<path d="M16.9165 39.5759L11.2439 38.1119V39.9564L16.9165 41.4179V39.5759Z" fill="#C52424"/>
<path d="M3.69897 41.4179L9.37164 39.9564V38.1119L3.69897 39.5759V41.4179" fill="#C52424"/>
</svg>
