<svg width="222" height="71" viewBox="0 0 222 71" fill="none" xmlns="http://www.w3.org/2000/svg">
<path d="M157.029 37.711C151.991 37.6332 148.077 39.2144 148.077 44.1419C148.077 47.4069 149.723 48.9952 151.863 48.9952C154.256 48.9952 156.215 46.9046 156.844 44.3153C156.972 43.6467 157.029 42.8897 157.029 42.1433V37.711ZM157.601 57.0179V52.9181H157.409C155.394 56.1725 152.24 57.9341 148.589 57.9341C142.346 57.9341 138.631 51.917 138.631 45.4012C138.631 34.7892 145.816 29.6919 156.72 29.7732V28.9455C156.72 25.5602 154.075 23.926 149.343 23.926C146.196 23.926 143.21 25.348 141.194 27.0141V18.8322C143.341 17.2439 147.202 15.2382 152.809 15.2382C163.084 15.2382 166.358 23.2609 166.358 32.8649V57.0179H157.601Z" fill="#0E728E"/>
<path d="M184.561 23.6783C188.969 23.6783 189.975 28.8606 189.975 31.9451H178.634C178.883 28.5245 180.526 23.6783 184.561 23.6783ZM187.842 48.408C183.366 48.408 179.011 45.9 178.695 40.64H198.551C198.675 39.7167 198.863 37.7924 198.863 35.624C198.863 25.5178 195.081 15.2382 185.126 15.2382C174.407 15.2382 169.558 26.6851 169.558 37.0425C169.558 49.83 175.993 57.8527 186.459 57.8527C190.989 57.8527 194.409 56.5899 197.296 55.1573V45.9035C194.714 46.9895 192.258 48.408 187.842 48.408Z" fill="#0E728E"/>
<path d="M30.189 21.3225L27.0817 15.5141L17.5608 19.0479L23.2705 29.4513L95.0719 4.59784H79.4716L30.189 21.3225Z" fill="#91C953"/>
<path d="M65.3396 24.262C69.7196 24.262 71.5008 30.4453 71.5008 36.5437C71.5008 43.8943 69.0832 48.8254 65.3396 48.8254C61.2155 48.8254 58.997 43.5618 58.997 36.5437C58.997 30.5267 60.7071 24.262 65.3396 24.262ZM49.0317 36.8762C49.0317 50.0811 56.0142 57.9341 65.0872 57.9341C73.4064 57.9341 81.4626 51.0787 81.4626 36.1298C81.4626 26.0625 77.1963 18.4784 70.4236 16.0624L52.8216 22.1926C50.4041 25.8786 49.0317 30.8804 49.0317 36.8762Z" fill="#0E728E"/>
<path d="M85.6824 15.9634H81.5833V25.0898H85.6824V42.016C85.6824 47.8562 86.5641 51.8357 88.324 54.2941C89.8385 56.4059 92.4232 57.8456 95.5126 57.8456C98.1791 57.8456 100.415 57.4389 101.688 56.7774V47.1027C100.995 47.269 100.049 47.4352 98.851 47.4352C95.9535 47.4352 95.0682 45.1536 95.0682 40.1624V25.0898H101.688V15.9634H95.0682V7.47726L85.6824 10.7458V15.9634Z" fill="#0E728E"/>
<path d="M124.769 15.6203C119.72 15.6203 117.011 18.6164 116.009 20.3532H115.881V0.232758L106.303 3.57202V57.0038H115.881V30.5337C115.881 27.2794 118.003 25.0898 120.986 25.0898C124.58 25.0898 125.963 28.7368 125.963 34.0286V70.0035L135.545 66.6678V33.3353C135.545 21.1668 130.88 15.6203 124.769 15.6203Z" fill="#0E728E"/>
<path d="M219.157 15.2382C216.195 15.2382 212.412 17.7462 210.837 23.6783H210.585V16.1579H202.269V57.0179H211.851V36.2926C211.851 35.2915 211.911 34.2869 212.036 33.4521C212.668 29.5256 215.065 27.0211 218.588 27.0211C219.576 27.0211 220.348 27.1626 221.002 27.3147V15.3691C220.401 15.2418 219.964 15.2382 219.157 15.2382Z" fill="#0E728E"/>
<path d="M28.1909 38.6987L35.1698 36.3782V46.6825C32.7202 47.1848 29.6556 47.5562 27.0141 47.5562C17.5607 47.5562 10.8911 40.4249 10.8911 28.7941C10.8911 16.569 18.2398 10.276 27.846 10.276C30.2849 10.276 32.5318 10.4317 34.5227 10.7217L43.2188 2.73791C40.7195 1.40787 35.6675 0 29.1188 0C12.4056 0 0.0796519 10.7111 0.00143677 29.4626C-0.0696679 37.7471 2.50076 45.119 7.19012 49.9687C11.8759 54.9917 18.606 57.5881 27.91 57.5881C34.6401 57.5881 41.3701 55.7452 44.9218 54.4151V24.9808L24.7032 31.9812L28.1909 38.6987Z" fill="#0E728E"/>
</svg>
