<svg width="272" height="68" viewBox="0 0 272 68" fill="none" xmlns="http://www.w3.org/2000/svg">
<path d="M51.9306 0H0V67.2772H51.9306V0Z" fill="#501E82"/>
<path d="M25.5893 44.5641V15.332H18.208V51.9453H39.6154V44.5641H25.5893Z" fill="white"/>
<path d="M107.108 0H55.1775V67.2772H107.108V0Z" fill="#781E82"/>
<path d="M84.8301 15.332H77.4487V51.9373H84.8301V15.332Z" fill="white"/>
<path d="M162.286 0H110.356V67.2772H162.286V0Z" fill="#A50F82"/>
<path d="M144.047 15.332V39.7778L129.213 15.332H121.214V51.9453H128.603V27.4995L143.453 51.9453H151.428V15.332H144.047Z" fill="white"/>
<path d="M217.464 0H165.533V67.2772H217.464V0Z" fill="#E6007D"/>
<path d="M207.121 15.332H198.94L189.412 29.952H184.62V15.332H177.231V51.9453H184.62V37.3253H189.412L198.94 51.9453H207.121L195.178 33.6386L207.121 15.332Z" fill="white"/>
<path d="M252.897 39.0183V15.332H244.803L229.415 39.0183V46.3916H245.516V51.9373H252.897V46.3916H257.42V39.0183H252.897ZM245.516 39.0183H237.43L245.516 26.4552V39.0183Z" fill="#6E6E6E"/>
<path d="M272 0H269.402V67.2772H272V0Z" fill="#6E6E6E"/>
</svg>
