<?xml version="1.0" encoding="UTF-8"?>
<!DOCTYPE svg PUBLIC "-//W3C//DTD SVG 1.1//EN" "http://www.w3.org/Graphics/SVG/1.1/DTD/svg11.dtd">
<!-- Creator: CorelDRAW 2017 -->
<svg xmlns="http://www.w3.org/2000/svg" xml:space="preserve" width="25.2364mm" height="25.2365mm" version="1.1" style="shape-rendering:geometricPrecision; text-rendering:geometricPrecision; image-rendering:optimizeQuality; fill-rule:evenodd; clip-rule:evenodd"
viewBox="0 0 827.02 827.03"
 xmlns:xlink="http://www.w3.org/1999/xlink">
 <defs>
  <style type="text/css">
   <![CDATA[
    .fil0 {fill:black}
   ]]>
  </style>
 </defs>
 <g id="Warstwa_x0020_1">
  <metadata id="CorelCorpID_0Corel-Layer"/>
  <path class="fil0" d="M318.76 405.83l25.65 28.48 50.05 -55.57 38.12 -42.57 0 -56.85c-37.92,42.26 -75.67,84.16 -113.81,126.51zm330.13 -283.77l0 12.73c-63.53,-53.72 -145.66,-86.11 -235.37,-86.11 -201.49,0 -364.83,163.34 -364.83,364.83 0,92.37 34.34,176.7 90.93,240.97l0 14.61 0 54.18c-78.93,-69.84 -130.98,-169.36 -138.63,-281.1l0 -0.04c-0.13,-1.88 -0.25,-3.77 -0.35,-5.65l0 -0.03c-0.1,-1.89 -0.2,-3.78 -0.27,-5.68l0 -0.03c-0.08,-1.9 -0.14,-3.8 -0.2,-5.71l0 -0.02c-0.05,-1.91 -0.09,-3.82 -0.12,-5.73l0 -0.01c-0.03,-1.92 -0.04,-3.84 -0.04,-5.76 0,-3.57 0.05,-7.13 0.13,-10.67 0.09,-3.55 0.22,-7.08 0.4,-10.6 0.18,-3.52 0.4,-7.03 0.67,-10.54l0 -0c0.27,-3.5 0.58,-6.99 0.93,-10.46l0 -0c0.35,-3.48 0.75,-6.93 1.19,-10.39 0.44,-3.45 0.92,-6.88 1.44,-10.31l0 -0c0.52,-3.42 1.09,-6.83 1.69,-10.22l0 -0c0.61,-3.4 1.26,-6.77 1.94,-10.14l0 -0c0.69,-3.37 1.42,-6.71 2.19,-10.04l0 -0c0.77,-3.34 1.58,-6.65 2.43,-9.96l0 0c0.85,-3.3 1.74,-6.59 2.67,-9.86 0.93,-3.27 1.9,-6.52 2.9,-9.76 1.01,-3.24 2.05,-6.45 3.14,-9.66l0 -0c1.08,-3.2 2.21,-6.38 3.37,-9.55l0 -0c1.16,-3.17 2.35,-6.31 3.59,-9.44 1.24,-3.13 2.5,-6.24 3.81,-9.33 2.62,-6.18 5.38,-12.29 8.28,-18.32l0 -0c1.45,-3.01 2.94,-6 4.46,-8.97l0 -0c10.65,-20.8 23.02,-40.58 36.91,-59.16l0 0c5.95,-7.96 12.18,-15.7 18.68,-23.2l0 0c13,-15 27.06,-29.06 42.06,-42.06l0 -0c7.5,-6.5 15.24,-12.73 23.2,-18.68l0 -0c18.57,-13.89 38.35,-26.25 59.16,-36.91l0 0c2.97,-1.52 5.96,-3.01 8.97,-4.46l0 0c6.03,-2.9 12.13,-5.67 18.32,-8.28 3.09,-1.31 6.2,-2.58 9.33,-3.81 3.13,-1.24 6.28,-2.43 9.44,-3.59l0 0c3.17,-1.16 6.35,-2.28 9.55,-3.37l0 0c3.2,-1.08 6.42,-2.13 9.66,-3.14 3.24,-1.01 6.49,-1.98 9.76,-2.9 3.27,-0.93 6.56,-1.82 9.86,-2.67l0 -0c3.3,-0.85 6.62,-1.66 9.96,-2.43l0 0c3.33,-0.77 6.68,-1.5 10.04,-2.19l0 0c3.37,-0.69 6.74,-1.34 10.14,-1.94l0 0c3.4,-0.61 6.8,-1.17 10.22,-1.69l0 0c3.42,-0.52 6.86,-1 10.31,-1.44 3.45,-0.44 6.91,-0.84 10.39,-1.19l0 0c3.47,-0.35 6.96,-0.66 10.46,-0.93l0 0c3.5,-0.27 7.01,-0.49 10.54,-0.67 3.53,-0.18 7.06,-0.31 10.6,-0.4 3.55,-0.09 7.1,-0.13 10.67,-0.13l0.29 0 0.28 -0c69.52,0 135.73,16.93 196.27,49.77l0 -0.19c13.35,7.26 26.21,15.21 38.54,23.79l0 0.16 0 48.53zm73.93 17.06c62.5,70.39 101.35,162.24 104.05,263.12 0.05,1.84 0.09,3.67 0.11,5.51l0 0.12c0.02,1.88 0.04,3.76 0.04,5.65 0,3.57 -0.05,7.13 -0.13,10.67 -0.09,3.55 -0.22,7.08 -0.4,10.6 -0.18,3.52 -0.4,7.04 -0.67,10.54 -0.27,3.5 -0.57,6.98 -0.93,10.46 -0.35,3.47 -0.75,6.94 -1.19,10.39 -0.44,3.45 -0.92,6.89 -1.44,10.31 -0.52,3.42 -1.09,6.83 -1.69,10.22 -0.61,3.4 -1.26,6.77 -1.94,10.14 -0.69,3.37 -1.42,6.71 -2.19,10.05 -0.77,3.34 -1.58,6.65 -2.43,9.96l-0 0c-0.85,3.3 -1.74,6.59 -2.67,9.86 -0.93,3.27 -1.9,6.52 -2.9,9.76 -1.01,3.24 -2.05,6.45 -3.14,9.66 -1.08,3.2 -2.21,6.39 -3.37,9.56 -1.16,3.17 -2.35,6.31 -3.59,9.44 -1.24,3.13 -2.5,6.24 -3.81,9.33 -1.31,3.09 -2.65,6.16 -4.03,9.22l-0 0c-1.38,3.05 -2.8,6.09 -4.25,9.1 -1.45,3.01 -2.94,6.01 -4.46,8.98 -1.52,2.97 -3.08,5.92 -4.67,8.85l-0 0c-1.59,2.93 -3.21,5.84 -4.87,8.72l-0 0c-1.66,2.89 -3.35,5.75 -5.08,8.59l-0 0c-1.73,2.84 -3.48,5.66 -5.28,8.46l-0 0c-1.79,2.8 -3.61,5.57 -5.47,8.32l-0 0c-1.86,2.75 -3.75,5.47 -5.67,8.18l-0 0c-1.92,2.7 -3.87,5.38 -5.86,8.04l-0 0c-1.99,2.65 -4,5.28 -6.04,7.88l-0 0c-2.05,2.61 -4.12,5.18 -6.23,7.73l-0 0c-2.11,2.55 -4.24,5.08 -6.41,7.58l-0 0c-2.17,2.5 -4.36,4.98 -6.58,7.42l-0 0c-2.23,2.45 -4.48,4.87 -6.76,7.26l-0 0c-2.28,2.39 -4.59,4.76 -6.93,7.1l-0 0c-2.34,2.34 -4.71,4.65 -7.09,6.93l-0 0c-2.39,2.28 -4.81,4.54 -7.26,6.76l-0 0c-2.45,2.23 -4.92,4.42 -7.42,6.59 -2.5,2.17 -5.03,4.3 -7.58,6.41l-0 0c-2.55,2.11 -5.13,4.18 -7.73,6.23l-0 0c-2.6,2.04 -5.23,4.06 -7.88,6.05 -2.65,1.99 -5.33,3.94 -8.03,5.86l-0 0c-2.7,1.92 -5.43,3.81 -8.18,5.67l-0 0c-2.75,1.86 -5.52,3.68 -8.31,5.48l-0 0c-2.8,1.79 -5.62,3.55 -8.45,5.28l-0 0c-2.84,1.73 -5.7,3.42 -8.59,5.08l-0 0c-2.89,1.66 -5.79,3.29 -8.72,4.88l-0 0c-2.93,1.59 -5.88,3.15 -8.85,4.67l-0 0c-2.97,1.52 -5.96,3.01 -8.97,4.46l-0 0c-3.01,1.45 -6.04,2.87 -9.1,4.25l-0 0c-3.05,1.38 -6.12,2.72 -9.22,4.03l0 0c-3.09,1.31 -6.2,2.58 -9.33,3.81l0 0c-3.13,1.24 -6.28,2.43 -9.44,3.59l-0 0c-3.17,1.16 -6.34,2.28 -9.55,3.36l-0 0c-3.2,1.08 -6.42,2.12 -9.66,3.13l0 0c-3.24,1.01 -6.49,1.97 -9.76,2.9l0 0c-3.27,0.93 -6.56,1.82 -9.86,2.67 -3.3,0.85 -6.62,1.66 -9.96,2.43l-0 0c-3.34,0.77 -6.68,1.49 -10.04,2.18l-0 0c-3.37,0.69 -6.74,1.34 -10.14,1.94l-0 0c-3.4,0.61 -6.8,1.17 -10.22,1.69l-0 0c-3.42,0.52 -6.86,1 -10.31,1.44l0 0c-3.45,0.44 -6.91,0.84 -10.39,1.19l-0 0c-3.48,0.35 -6.96,0.66 -10.46,0.92l-0 0c-3.5,0.27 -7.01,0.49 -10.54,0.67l0 0c-3.52,0.18 -7.06,0.31 -10.6,0.4l0 0c-3.55,0.09 -7.1,0.13 -10.67,0.13l0 0 -0.35 -0 -0.21 0.01c-87.25,0 -168.15,-27.18 -234.8,-73.48l0 -0.04 0 -48.53 0 -12.73c63.54,53.7 145.66,86.1 235.37,86.1 201.49,0 364.83,-163.34 364.83,-364.83 0,-92.36 -34.34,-176.69 -90.93,-240.96l0 -14.61 0 -54.18 0 -0.09c11.81,10.48 22.99,21.6 33.48,33.29l0.93 1.03 0.99 1.12zm-328.36 351.74l0 56.34c38.13,-41.98 75.68,-83.67 113.81,-126l-25.65 -28.47 -50.05 55.56 -38.12 42.57zm215.89 -211.94l0 2.52 0 33.69 0 121.14 0 12.65 -63.55 -70.55 -51.3 0 0.03 0.03 43.81 48.64 71.01 78.83 38.12 42.52c0.22,-80.23 0.33,-176.94 0.39,-269.47l-38.51 0zm-393.67 269.2l0 -2.52 0 -33.69 0 -121.14 0 -12.65 63.55 70.55 51.3 0 -0.03 -0.03 -43.55 -48.34 -71.28 -79.13 -38.11 -42.14c-0.22,80.2 -0.33,176.71 -0.39,269.09l38.5 0zm-185.61 -0.54l-2.19 -6.46 17.29 -5.86c2.75,-0.93 4.49,-1.61 5.25,-2.04 1.22,-0.72 2.05,-1.72 2.49,-3.01 0.45,-1.3 0.36,-2.84 -0.24,-4.62 -0.61,-1.8 -1.45,-3.04 -2.51,-3.71 -1.07,-0.67 -2.16,-0.91 -3.32,-0.72 -1.15,0.19 -2.99,0.7 -5.51,1.56l-17.66 5.99 -2.19 -6.46 16.77 -5.69c3.83,-1.3 6.6,-2.05 8.3,-2.23 1.7,-0.19 3.25,-0 4.66,0.56 1.41,0.56 2.69,1.51 3.87,2.85 1.17,1.35 2.19,3.27 3.05,5.79 1.03,3.03 1.46,5.46 1.28,7.26 -0.17,1.81 -0.67,3.36 -1.49,4.65 -0.82,1.29 -1.79,2.29 -2.93,3 -1.68,1.04 -4.32,2.16 -7.89,3.38l-17.03 5.77zm-17.93 -70.74l-1.68 -13.36c-0.33,-2.65 -0.47,-4.63 -0.41,-5.96 0.06,-1.34 0.37,-2.55 0.94,-3.67 0.57,-1.11 1.39,-2.08 2.46,-2.91 1.07,-0.83 2.34,-1.34 3.78,-1.52 1.56,-0.2 3.05,0.04 4.45,0.72 1.41,0.68 2.53,1.7 3.36,3.05 0.34,-2.1 1.16,-3.79 2.45,-5.06 1.29,-1.27 2.91,-2.03 4.84,-2.27 1.52,-0.19 3.05,-0.03 4.57,0.5 1.53,0.52 2.8,1.34 3.82,2.46 1.01,1.12 1.73,2.56 2.16,4.33 0.26,1.1 0.67,3.81 1.25,8.1l1.43 11.38 -33.41 4.2zm4.7 -7.47l7.7 -0.97 -0.55 -4.42c-0.33,-2.62 -0.57,-4.25 -0.73,-4.88 -0.28,-1.13 -0.79,-2 -1.53,-2.58 -0.74,-0.58 -1.65,-0.79 -2.72,-0.66 -1.04,0.13 -1.83,0.52 -2.41,1.17 -0.58,0.65 -0.86,1.55 -0.85,2.68 0,0.68 0.21,2.6 0.6,5.77l0.49 3.87zm13.26 -1.66l8.96 -1.12 -0.79 -6.25c-0.3,-2.43 -0.57,-3.97 -0.78,-4.6 -0.31,-0.98 -0.86,-1.74 -1.65,-2.28 -0.79,-0.54 -1.78,-0.74 -2.97,-0.59 -1.01,0.13 -1.83,0.48 -2.47,1.06 -0.64,0.57 -1.07,1.34 -1.27,2.3 -0.2,0.96 -0.11,2.98 0.27,6.05l0.68 5.45zm10.34 -61.4l-33.59 -2.48 1.84 -24.86 5.68 0.42 -1.33 18.06 7.46 0.55 1.24 -16.79 5.68 0.42 -1.24 16.79 9.1 0.67 1.39 -18.72 5.68 0.42 -1.89 25.52zm6.51 -61l-5.96 -1.38 -17.31 -22.22 -3.54 15.32 -5.54 -1.28 5.55 -24.01 5.14 1.19 17.98 23.08 4.31 -18.65 5.55 1.28 -6.17 26.67zm17.41 -62l-31.32 -12.4 4.01 -10.14c1.52,-3.84 2.66,-6.28 3.44,-7.32 1.19,-1.61 2.8,-2.7 4.85,-3.29 2.05,-0.58 4.33,-0.38 6.82,0.6 1.92,0.76 3.4,1.75 4.43,2.96 1.04,1.22 1.71,2.51 2.04,3.88 0.32,1.36 0.38,2.65 0.18,3.86 -0.3,1.63 -1.01,3.87 -2.14,6.72l-1.63 4.11 11.81 4.68 -2.51 6.34zm-23.51 -16.64l8.92 3.53 1.36 -3.44c0.98,-2.49 1.47,-4.21 1.47,-5.18 0,-0.97 -0.25,-1.83 -0.77,-2.58 -0.51,-0.75 -1.23,-1.31 -2.16,-1.68 -1.15,-0.46 -2.22,-0.49 -3.22,-0.12 -1.01,0.38 -1.81,1.03 -2.41,1.98 -0.44,0.69 -1.1,2.18 -2.01,4.45l-1.2 3.04zm50.73 -40.79l-29.19 -16.8 3.4 -5.91 29.19 16.8 -3.4 5.91zm25.57 -38.03l-26.51 -20.77 15.37 -19.62 4.48 3.51 -11.17 14.26 5.89 4.61 10.39 -13.26 4.48 3.51 -10.38 13.26 7.18 5.63 11.57 -14.78 4.48 3.51 -15.78 20.14zm51.54 -71l6.31 -2.78c1.66,3.47 2.18,6.65 1.58,9.56 -0.6,2.89 -2.27,5.52 -5,7.88 -3.39,2.93 -7.17,4.18 -11.35,3.75 -4.18,-0.43 -8,-2.65 -11.47,-6.67 -3.66,-4.24 -5.42,-8.49 -5.26,-12.73 0.16,-4.24 2.03,-7.9 5.6,-10.99 3.12,-2.7 6.46,-3.96 10,-3.8 2.1,0.09 4.32,0.9 6.67,2.45l-4.04 5.61c-1.44,-1.06 -2.97,-1.56 -4.59,-1.5 -1.62,0.07 -3.11,0.69 -4.48,1.87 -1.89,1.64 -2.84,3.64 -2.84,6.01 -0.01,2.37 1.29,5.07 3.92,8.11 2.78,3.22 5.34,5.01 7.68,5.37 2.35,0.36 4.44,-0.26 6.3,-1.86 1.37,-1.19 2.18,-2.64 2.41,-4.36 0.23,-1.72 -0.24,-3.7 -1.42,-5.94zm41.68 -15.91l-3.06 -5.3 4.45 -27.81 -13.62 7.86 -2.84 -4.93 21.35 -12.31 2.63 4.57 -4.62 28.89 16.59 -9.57 2.84 4.93 -23.71 13.68zm57.13 -29.72l-12.37 -31.33 23.19 -9.16 2.09 5.3 -16.84 6.65 2.75 6.95 15.66 -6.18 2.09 5.3 -15.66 6.18 3.35 8.48 17.46 -6.89 2.09 5.29 -23.8 9.4zm60.47 -20.05l-5.97 -33.14 6.5 -1.17 17.64 19.75 -4 -22.21 6.21 -1.12 5.97 33.14 -6.7 1.21 -17.36 -19.37 3.93 21.79 -6.2 1.12zm65.99 -8.88l-0.91 -33.67 6.82 -0.18 0.91 33.67 -6.82 0.18zm76.05 3.82l-7.29 -0.91 -1.93 -7.97 -13.4 -1.68 -3.73 7.26 -7.16 -0.9 17.17 -31.79 7.15 0.9 9.19 35.1zm-10.7 -14.81l-3.09 -12.95 -6.07 11.8 9.16 1.15z"/>
 </g>
</svg>
