<svg width="69" height="40.5" viewBox="0 0 46 27" fill="none" xmlns="http://www.w3.org/2000/svg">
<path fill-rule="evenodd" clip-rule="evenodd" d="M13.5996 12.2762L16.0807 15.0311L20.9222 9.65575L24.6096 5.53789V0.0386925C20.9415 4.12657 17.2889 8.17963 13.5996 12.2762ZM20.9222 20.5013V25.9512C24.6106 21.8904 28.2429 17.8576 31.9313 13.763L29.4501 11.009L24.6086 16.3834L20.9222 20.5013ZM41.8057 0V0.243763V3.50265V15.2207V16.4444L35.6583 9.61996H30.696L30.6989 9.62286L34.9367 14.3279L41.8057 21.9533L45.4931 26.0663C45.5144 18.3055 45.525 8.95058 45.5308 0H41.8057ZM3.72515 26.0402V25.7964V22.5375V10.8194V9.59578L9.87247 16.4202H14.8348L14.8319 16.4173L10.6192 11.7413L3.72418 4.08691L0.0377254 0.0106392C0.0164444 7.76852 0.00580392 17.1041 0 26.0402H3.72515Z" fill="black"/>
</svg>
