<svg width="185" height="71" viewBox="0 0 185 71" fill="none" xmlns="http://www.w3.org/2000/svg">
<path d="M35.4094 24.7871C36.3789 25.452 38.7312 26.7871 42.1891 25.564C78.3019 12.7939 80.7195 10.0606 105.121 22.4486C113.766 26.8323 119.306 23.3184 119.677 22.9467C91.7453 -9.68375 94.654 4.94155 35.4094 24.7871Z" fill="#F49432"/>
<path d="M35.4094 24.7871C36.3789 25.452 38.7312 26.7871 42.1891 25.564C78.3019 12.7939 80.7195 10.0606 105.121 22.4486C113.766 26.8323 119.306 23.3184 119.677 22.9467C91.7453 -9.68375 94.654 4.94155 35.4094 24.7871Z" fill="#F49432"/>
<path d="M35.4094 24.7871C36.3789 25.452 38.7312 26.7871 42.1891 25.564C78.3019 12.7939 80.7195 10.0606 105.121 22.4486C113.766 26.8323 119.306 23.3184 119.677 22.9467C91.7453 -9.68375 94.654 4.94155 35.4094 24.7871Z" stroke="white" stroke-width="0.96" stroke-linecap="round" stroke-linejoin="round"/>
<path d="M35.9631 24.7843C37.0431 25.4492 39.5511 26.4254 43.5182 25.5776C99.778 13.5409 94.2723 7.83855 120.128 22.9675C128.373 27.7897 134.126 23.8589 134.535 23.4856C103.348 -9.2392 102.364 -4.01177 35.9631 24.7843Z" fill="#006533"/>
<path d="M35.9631 24.7843C37.0431 25.4492 39.5511 26.4254 43.5182 25.5776C99.778 13.5409 94.2723 7.83855 120.128 22.9675C128.373 27.7897 134.126 23.8589 134.535 23.4856C103.348 -9.2392 102.364 -4.01177 35.9631 24.7843Z" stroke="white" stroke-width="0.96" stroke-linecap="round" stroke-linejoin="round"/>
<path d="M112.964 4.29707C90.8164 -4.08258 83.3715 4.87678 35.9612 24.7875C37.0431 25.4508 39.5896 26.6026 43.513 25.5808C66.2025 19.6469 79.1239 15.4825 87.9493 13.5513C101.987 10.4811 119.383 7.75695 112.964 4.29707Z" fill="#006533"/>
<path d="M112.964 4.29707C90.8164 -4.08258 83.3715 4.87678 35.9612 24.7875C37.0431 25.4508 39.5896 26.6026 43.513 25.5808C66.2025 19.6469 79.1239 15.4825 87.9493 13.5513C101.987 10.4811 119.383 7.75695 112.964 4.29707Z" stroke="white" stroke-width="0.96" stroke-linecap="round" stroke-linejoin="round"/>
<path d="M35.9631 24.7871C37.1663 25.4576 42.2605 27.4592 52.7627 25.0572C109.173 12.1418 103.916 3.53573 134.457 23.3272C143.565 29.2272 151.17 24.3794 151.627 24.0066C114.704 -8.90152 112.542 -3.02677 35.9631 24.7871Z" fill="#95C11F"/>
<path d="M35.9631 24.7871C37.1663 25.4576 42.2605 27.4592 52.7627 25.0572C109.173 12.1418 103.916 3.53573 134.457 23.3272C143.565 29.2272 151.17 24.3794 151.627 24.0066C114.704 -8.90152 112.542 -3.02677 35.9631 24.7871Z" stroke="white" stroke-width="0.96" stroke-linecap="round" stroke-linejoin="round"/>
<path d="M6.23775 54.4706C6.88818 54.5358 7.46096 54.5811 7.95009 54.6083C8.43601 54.6375 9.14809 54.6555 10.0887 54.6555C11.35 54.6555 12.606 54.5558 13.8472 54.3602C15.0904 54.159 16.2016 53.8001 17.1818 53.2804C18.1569 52.7679 18.9434 52.0542 19.5342 51.154C20.123 50.2574 20.424 49.0852 20.424 47.6561C20.424 46.4026 20.1666 45.35 19.6555 44.4934C19.1483 43.6421 18.4435 42.9555 17.5461 42.4354C16.6491 41.9157 15.5708 41.5497 14.3095 41.3396C13.0427 41.1224 11.6762 41.0156 10.21 41.0156C8.70419 41.0156 7.37771 41.0644 6.23775 41.1532V54.4706ZM0 37.4941C0.612407 37.4324 1.33369 37.3728 2.17104 37.3112C3.0028 37.2512 3.87978 37.1972 4.79879 37.1516C5.7178 37.1028 6.63481 37.0648 7.55142 37.0356C8.46843 37.0052 9.35502 36.9888 10.21 36.9888C12.4519 36.9888 14.5833 37.1588 16.6002 37.4941C18.6192 37.8309 20.3896 38.4106 21.919 39.2312C23.4468 40.0534 24.6592 41.1476 25.5562 42.5063C26.4552 43.8629 26.9011 45.5637 26.9011 47.6125C26.9011 49.7445 26.4188 51.5196 25.4641 52.9363C24.5051 54.3602 23.2423 55.496 21.6764 56.349C20.107 57.204 18.3218 57.8053 16.3265 58.157C14.3275 58.5082 12.289 58.6859 10.21 58.6859C9.43468 58.6859 8.75302 58.6767 8.16423 58.6607C7.57184 58.6463 6.92821 58.6079 6.23775 58.5478V70.4454C5.2571 70.5378 4.22241 70.5794 3.11887 70.5794C2.62775 70.5794 2.1094 70.5758 1.55864 70.5594C1.00947 70.5434 0.489125 70.505 0 70.4454V37.4941Z" fill="#003669"/>
<path d="M31.6096 46.9668C32.0571 46.9052 32.4886 46.8616 32.8929 46.8288C33.2967 46.7964 33.7298 46.784 34.1777 46.784C34.6232 46.784 35.0747 46.7964 35.5222 46.8288C35.9717 46.8616 36.3776 46.9052 36.7474 46.9668C36.8707 47.4253 36.9884 48.0282 37.1097 48.778C37.235 49.5229 37.2966 50.1551 37.2966 50.6748C38.15 49.637 39.2843 48.7384 40.6888 47.9742C42.0954 47.2113 43.8986 46.8288 46.1004 46.8288C46.4246 46.8288 46.7617 46.8384 47.1099 46.8528C47.4525 46.8708 47.7495 46.8924 47.9957 46.9216C48.0757 47.1929 48.1354 47.4885 48.179 47.7926C48.2206 48.0971 48.2387 48.4159 48.2387 48.7528C48.2387 49.1169 48.2078 49.5045 48.1482 49.8974C48.0866 50.2959 48.0157 50.6748 47.9361 51.0424C47.6062 50.9788 47.2712 50.948 46.923 50.948H46.1004C44.9965 50.948 43.951 51.0604 42.9507 51.2909C41.9521 51.5225 41.0551 51.9282 40.2614 52.5063C39.4656 53.0856 38.8332 53.879 38.3621 54.8864C37.8962 55.8934 37.6608 57.1884 37.6608 58.7756V70.4463C37.2133 70.5059 36.7166 70.5475 36.1654 70.5839C35.6147 70.6131 35.1163 70.6255 34.6668 70.6255C34.2194 70.6255 33.719 70.6131 33.1683 70.5839C32.6171 70.5475 32.1007 70.5059 31.6096 70.4463V46.9668Z" fill="#003669"/>
<path d="M63.6463 67.3794C66.457 67.3794 68.5391 66.622 69.884 65.0933C71.2269 63.5702 71.8994 61.447 71.8994 58.7337C71.8994 56.0147 71.2269 53.9023 69.884 52.39C68.5391 50.8809 66.457 50.1292 63.6463 50.1292C60.8356 50.1292 58.7638 50.8809 57.441 52.39C56.1145 53.9023 55.4528 56.0147 55.4528 58.7337C55.4528 61.447 56.1145 63.5702 57.441 65.0933C58.7638 66.622 60.8356 67.3794 63.6463 67.3794ZM63.6463 70.9965C61.1999 70.9965 59.0576 70.6832 57.2272 70.0563C55.3932 69.4334 53.8654 68.5712 52.6422 67.4734C51.419 66.374 50.5112 65.0769 49.9204 63.5826C49.3292 62.0847 49.0342 60.4704 49.0342 58.7337C49.0342 56.9925 49.3292 55.377 49.9204 53.8791C50.5112 52.3848 51.419 51.0894 52.6422 49.9896C53.8654 48.8921 55.3932 48.0208 57.2272 47.3834C59.0576 46.7401 61.1999 46.4176 63.6463 46.4176C66.0891 46.4176 68.2313 46.7401 70.067 47.3834C71.8994 48.0208 73.4268 48.8921 74.652 49.9896C75.8752 51.0894 76.7798 52.3848 77.3722 53.8791C77.963 55.377 78.2604 56.9925 78.2604 58.7337C78.2604 60.4704 77.963 62.0847 77.3722 63.5826C76.7798 65.0769 75.8752 66.374 74.652 67.4734C73.4268 68.5712 71.8994 69.4334 70.067 70.0563C68.2313 70.6832 66.0891 70.9965 63.6463 70.9965Z" fill="#003669"/>
<path d="M100.267 59.4177C99.6563 59.3585 98.8786 59.2965 97.9415 59.2349C97.0081 59.1737 96.2108 59.1429 95.5604 59.1429C93.0303 59.1429 91.1038 59.4957 89.7809 60.1987C88.4565 60.8996 87.7928 61.9646 87.7928 63.3993C87.7928 64.3159 88.0162 65.0316 88.4673 65.5533C88.9168 66.0674 89.4763 66.4643 90.1492 66.74C90.8212 67.0188 91.5625 67.1833 92.3799 67.2417C93.1936 67.3069 93.9673 67.3373 94.7014 67.3373C95.6384 67.3373 96.6115 67.2957 97.6097 67.2177C98.6052 67.1452 99.4914 67.0276 100.267 66.874V59.4177ZM100.267 54.9781C100.267 53.1813 99.6563 51.9315 98.4327 51.2233C97.2059 50.5256 95.4387 50.1707 93.1139 50.1707C91.6838 50.1707 90.3517 50.2595 89.1089 50.4244C87.8637 50.5928 86.6513 50.8136 85.4697 51.0873C84.698 50.0819 84.3097 48.8773 84.3097 47.4718C85.6926 47.1369 87.224 46.8793 88.8931 46.6984C90.5638 46.5116 92.1769 46.4176 93.7263 46.4176C97.8003 46.4176 100.899 47.1129 103.018 48.5008C105.134 49.8915 106.198 52.1127 106.198 55.1629V69.8518C104.77 70.0978 103.038 70.3479 101.001 70.6091C98.9618 70.864 96.8832 71 94.763 71C92.7641 71 90.9645 70.8588 89.3514 70.5851C87.7424 70.3115 86.3795 69.8718 85.2559 69.2597C84.136 68.6487 83.2714 67.8698 82.659 66.9228C82.0482 65.9786 81.74 64.834 81.74 63.4937C81.74 62.1767 82.099 61.028 82.8131 60.0395C83.5252 59.0445 84.491 58.2227 85.7142 57.563C86.9374 56.9076 88.3476 56.4183 89.935 56.1011C91.5225 55.7786 93.1936 55.6194 94.946 55.6194C96.2508 55.6194 97.3203 55.643 98.1573 55.6886C98.9906 55.7354 99.6975 55.7882 100.267 55.8478V54.9781Z" fill="#003669"/>
<path d="M112.802 46.9668C113.247 46.9052 113.684 46.8616 114.115 46.8288C114.543 46.7964 114.976 46.784 115.428 46.784C115.873 46.784 116.296 46.7964 116.68 46.8288C117.067 46.8616 117.482 46.9052 117.934 46.9668C118.055 47.4253 118.181 48.0282 118.298 48.778C118.423 49.5229 118.485 50.155 118.485 50.6747C118.849 50.1242 119.311 49.5985 119.858 49.0968C120.41 48.5919 121.06 48.1458 121.817 47.7438C122.569 47.3509 123.438 47.03 124.415 46.784C125.391 46.5411 126.475 46.4199 127.654 46.4199C130.101 46.4199 131.986 46.7944 133.307 47.5393C134.635 48.2875 135.645 49.3341 136.337 50.6747C136.743 50.155 137.242 49.6369 137.836 49.1168C138.427 48.5987 139.088 48.1458 139.821 47.7438C140.556 47.3509 141.392 47.03 142.332 46.784C143.265 46.5411 144.326 46.4199 145.507 46.4199C149.135 46.4199 151.774 47.1805 153.427 48.7108C155.074 50.2327 155.901 52.4899 155.901 55.4821V70.4463C155.451 70.5059 154.942 70.5475 154.375 70.5839C153.798 70.6131 153.291 70.6255 152.843 70.6255C152.394 70.6255 151.895 70.6131 151.348 70.5839C150.795 70.5475 150.297 70.5059 149.848 70.4463V56.8084C149.848 54.7035 149.416 53.124 148.563 52.0714C147.709 51.0172 146.299 50.4919 144.346 50.4919C142.263 50.4919 140.587 51.0572 139.304 52.1874C138.019 53.3157 137.376 54.9804 137.376 57.176V70.4463C136.925 70.5059 136.431 70.5475 135.877 70.5839C135.33 70.6131 134.828 70.6255 134.382 70.6255C133.931 70.6255 133.43 70.6131 132.882 70.5839C132.332 70.5475 131.832 70.5059 131.387 70.4463V56.4895C131.387 54.4427 130.977 52.9096 130.161 51.8886C129.346 50.8648 128.044 50.3543 126.249 50.3543C125.228 50.3543 124.271 50.5227 123.376 50.8628C122.479 51.1944 121.692 51.6981 121.024 52.3667C120.351 53.0404 119.82 53.8882 119.433 54.908C119.045 55.933 118.849 57.1104 118.849 58.4587V70.4463C118.401 70.5059 117.901 70.5475 117.358 70.5839C116.803 70.6131 116.303 70.6255 115.855 70.6255C115.404 70.6255 114.898 70.6131 114.328 70.5839C113.757 70.5475 113.247 70.5059 112.802 70.4463L112.802 46.9668Z" fill="#003669"/>
<path d="M179.074 59.4177C178.461 59.3585 177.685 59.2965 176.75 59.2349C175.815 59.1737 175.018 59.1429 174.363 59.1429C171.838 59.1429 169.911 59.4957 168.588 60.1987C167.263 60.8996 166.602 61.9646 166.602 63.3993C166.602 64.3159 166.825 65.0316 167.274 65.5533C167.724 66.0674 168.284 66.4643 168.952 66.74C169.625 67.0188 170.371 67.1833 171.187 67.2417C171.998 67.3069 172.776 67.3373 173.508 67.3373C174.445 67.3373 175.415 67.2957 176.41 67.2177C177.412 67.1452 178.298 67.0276 179.074 66.874V59.4177ZM179.074 54.9781C179.074 53.1813 178.461 51.9315 177.24 51.2233C176.013 50.5256 174.242 50.1707 171.921 50.1707C170.491 50.1707 169.157 50.2595 167.916 50.4244C166.671 50.5928 165.458 50.8136 164.279 51.0873C163.503 50.0819 163.115 48.8773 163.115 47.4718C164.498 47.1369 166.035 46.8793 167.7 46.6984C169.371 46.5116 170.98 46.4176 172.533 46.4176C176.609 46.4176 179.702 47.1129 181.825 48.5008C183.941 49.8915 185 52.1127 185 55.1629V69.8518C183.577 70.0978 181.845 70.3479 179.806 70.6091C177.769 70.864 175.69 71 173.568 71C171.571 71 169.768 70.8588 168.162 70.5851C166.549 70.3115 165.186 69.8718 164.063 69.2597C162.939 68.6487 162.076 67.8698 161.466 66.9228C160.855 65.9786 160.547 64.834 160.547 63.4937C160.547 62.1767 160.904 61.028 161.618 60.0395C162.332 59.0445 163.298 58.2227 164.522 57.563C165.743 56.9076 167.153 56.4183 168.74 56.1011C170.331 55.7786 171.998 55.6194 173.753 55.6194C175.058 55.6194 176.129 55.643 176.964 55.6886C177.802 55.7354 178.501 55.7882 179.074 55.8478V54.9781Z" fill="#003669"/>
</svg>
