<svg width="91" height="80" viewBox="0 0 91 80" fill="none" xmlns="http://www.w3.org/2000/svg">
<path d="M21.3281 36.4062C9.54906 36.4062 0 44.801 0 55.1562C0 65.5115 9.54906 73.9062 21.3281 73.9062C33.1072 73.9062 42.6562 65.5115 42.6562 55.1562C42.6562 44.801 33.1072 36.4062 21.3281 36.4062ZM21.3281 62.1875C16.9181 62.1875 13.3301 59.0332 13.3301 55.1562C13.3301 51.2793 16.9181 48.125 21.3281 48.125C25.7382 48.125 29.3262 51.2793 29.3262 55.1562C29.3262 59.0332 25.7382 62.1875 21.3281 62.1875Z" fill="#3498DB"/>
<path d="M21.3281 52.8125C19.8583 52.8125 18.6621 53.8641 18.6621 55.1563C18.6621 56.4484 19.8583 57.5 21.3281 57.5C22.7979 57.5 23.9941 56.4484 23.9941 55.1563C23.9941 53.8641 22.7979 52.8125 21.3281 52.8125Z" fill="#3498DB"/>
<path d="M69.6719 20C69.6719 18.7079 70.8681 17.6562 72.3379 17.6562V12.9688C67.9279 12.9688 64.3398 16.123 64.3398 20V27.0312H69.6719V20Z" fill="#3498DB"/>
<path d="M56.539 50.4688C60.2318 44.8688 67.126 41.0938 75.0039 41.0938C78.8863 41.0938 82.5292 42.0105 85.668 43.6108V41.0938C85.668 35.9241 80.8844 31.7188 75.0039 31.7188H38.9919C33.9264 28.7585 27.8529 27.0312 21.3281 27.0312C13.9098 27.0312 6.67892 29.3146 0.968506 33.4607L4.36351 37.0752C9.12138 33.6212 15.1463 31.7188 21.3281 31.7188C34.2028 31.7188 44.9751 39.7839 47.4523 50.4688H56.539Z" fill="#3498DB"/>
<path d="M54.3506 55.1562H47.9883V62.1875H53.8424C53.7327 61.4197 53.6758 60.6372 53.6758 59.8438C53.6758 58.2257 53.9104 56.6553 54.3506 55.1562Z" fill="#3498DB"/>
<path d="M75.0039 45.7812C66.1693 45.7812 59.0078 52.077 59.0078 59.8438C59.0078 67.6105 66.1693 73.9062 75.0039 73.9062C83.8386 73.9062 91 67.6105 91 59.8438C91 52.077 83.8386 45.7812 75.0039 45.7812ZM75.0039 62.1875C73.5313 62.1875 72.3379 61.1383 72.3379 59.8438C72.3379 58.5492 73.5313 57.5 75.0039 57.5C76.4765 57.5 77.6699 58.5492 77.6699 59.8438C77.6699 61.1383 76.4765 62.1875 75.0039 62.1875Z" fill="#3498DB"/>
<path d="M13.3301 23.1085C15.9433 22.6038 18.6246 22.3438 21.3281 22.3438C28.1327 22.3438 34.7374 23.96 40.5352 27.0312H50.9209L46.0221 10.625H50.6543V5.9375H7.99805V10.625H13.3301V23.1085Z" fill="#3498DB"/>
</svg>
