<svg width="179" height="70" viewBox="0 0 179 70" fill="none" xmlns="http://www.w3.org/2000/svg">
<path d="M0.443359 0.000502469H51.7347V14.0107H34.9517V46.2546H17.2251V14.0107H0.443359V0.000502469Z" fill="#E73834"/>
<path d="M126.364 0.000502469H177.826V13.1269L150.809 32.4334H179.001V46.2546H124.568V34.0755L152.546 13.7583H126.364V0.000502469Z" fill="#E73834"/>
<path d="M2.93868 54.6266V63.4465C2.93868 66.4098 4.25311 67.7788 6.23513 67.7788C8.36233 67.7788 9.6288 66.4098 9.6288 63.4465V54.6266H12.5675V63.2679C12.5675 67.9354 10.0112 70.0006 6.1405 70.0006C2.41238 70.0006 0 68.048 0 63.2899V54.6266H2.93868Z" fill="#243879"/>
<path d="M20.1004 67.7562C20.4828 67.8235 20.9845 67.8235 21.6534 67.8235C23.5407 67.8235 25.2376 67.1726 25.2376 65.3105C25.2376 63.5364 23.5887 62.8196 21.5587 62.8196H20.1004V67.7562ZM20.1004 60.8216H21.6054C23.6613 60.8216 24.7839 59.9236 24.7839 58.6438C24.7839 57.2088 23.6367 56.5579 21.7726 56.5579C20.9119 56.5579 20.4115 56.6019 20.1004 56.6705V60.8216ZM17.1851 54.8511C18.1171 54.6725 19.8139 54.5159 21.4861 54.5159C23.6367 54.5159 24.9991 54.7851 26.0737 55.48C27.077 56.0416 27.7459 57.0289 27.7459 58.3307C27.7459 59.7217 26.8139 60.9782 25.0704 61.5838V61.6511C26.7672 62.0561 28.3201 63.3126 28.3201 65.3778C28.3201 66.7249 27.6979 67.7795 26.7905 68.5197C25.6433 69.4397 23.7559 69.9107 20.7939 69.9107C19.1684 69.9107 17.9499 69.7994 17.1851 69.7088V54.8511Z" fill="#243879"/>
<path d="M41.2042 63.0433H35.135V67.4869H41.921V69.754H32.1963V54.6271H41.5619V56.8942H35.135V60.7995H41.2042V63.0433Z" fill="#243879"/>
<path d="M44.6738 68.2276L52.8936 56.984V56.9167H45.3907V54.6263H56.7163V56.2425L48.5925 67.3968V67.4654H56.8356V69.7545H44.6738V68.2276Z" fill="#243879"/>
<path d="M63.4363 61.8536C63.8187 61.9662 64.2724 61.9882 64.87 61.9882C67.0685 61.9882 68.4063 60.9568 68.4063 59.2061C68.4063 57.5226 67.1632 56.6478 65.1332 56.6478C64.3204 56.6478 63.7475 56.7138 63.4363 56.7811V61.8536ZM60.521 54.8284C61.5969 54.6499 63.0539 54.5153 65.0126 54.5153C67.1632 54.5153 68.7174 54.941 69.7441 55.7498C70.7007 56.4899 71.3216 57.6791 71.3216 59.0935C71.3216 60.5298 70.8433 61.697 69.9593 62.5045C68.7641 63.6044 66.948 64.1427 64.87 64.1427C64.3204 64.1427 63.8421 64.1207 63.4363 64.0314V69.7535H60.521V54.8284Z" fill="#243879"/>
<path d="M78.0647 69.7546H75.126V54.6277H78.0647V69.7546Z" fill="#243879"/>
<path d="M91.6866 63.0433H85.6174V67.4869H92.4034V69.754H82.6787V54.6271H92.0444V56.8942H85.6174V60.7995H91.6866V63.0433Z" fill="#243879"/>
<path d="M107.772 69.3276C107.08 69.6421 105.55 70.0005 103.591 70.0005C98.478 70.0005 95.3721 66.9933 95.3721 62.3698C95.3721 57.3879 99.0756 54.3806 103.998 54.3806C105.933 54.3806 107.295 54.7623 107.892 55.0535L107.271 57.2533C106.506 56.9389 105.431 56.6697 104.117 56.6697C100.844 56.6697 98.478 58.5991 98.478 62.2352C98.478 65.5789 100.533 67.6894 104.093 67.6894C105.264 67.6894 106.506 67.4656 107.295 67.1498L107.772 69.3276Z" fill="#243879"/>
<path d="M110.455 68.2276L118.675 56.984V56.9167H111.172V54.6263H122.498V56.2425L114.372 67.3968V67.4654H122.617V69.7545H110.455V68.2276Z" fill="#243879"/>
<path d="M135.31 63.0433H129.24V67.4869H136.026V69.754H126.302V54.6271H135.667V56.8942H129.24V60.7995H135.31V63.0433Z" fill="#243879"/>
<path d="M139.83 69.7542V54.6273H143.199L147.358 61.1128C148.409 62.7976 149.364 64.5471 150.104 66.1853H150.152C149.937 64.1653 149.889 62.2127 149.889 59.9016V54.6273H152.614V69.7542H149.555L145.35 63.0887C144.323 61.4272 143.27 59.5872 142.482 57.8817L142.388 57.9037C142.506 59.8563 142.555 61.8543 142.555 64.3452V69.7542H139.83Z" fill="#243879"/>
<path d="M160.195 69.7546H157.255V54.6277H160.195V69.7546Z" fill="#243879"/>
<path d="M172.646 63.3801L171.379 59.6547C171.07 58.7347 170.807 57.702 170.567 56.8273H170.519C170.28 57.702 170.018 58.7567 169.755 59.6547L168.513 63.3801H172.646ZM168.034 65.4674L166.649 69.7544H163.615L168.775 54.6262H172.527L177.76 69.7544H174.581L173.124 65.4674H168.034Z" fill="#243879"/>
<path d="M116.072 34.5305C116.072 40.9164 109.159 46.4987 101.396 46.4987H86.0796H77.6174C68.8843 46.4987 61.0781 40.9164 61.0781 34.5305L61.0911 -9.67784e-06H76.1863V28.2144C76.1863 30.9719 78.4717 32.2647 81.0889 32.2647H87.5405H96.9528C99.2122 32.2647 100.976 30.9719 100.976 28.2144V-9.67784e-06H116.072V34.5305Z" fill="#E73834"/>
</svg>
