<svg width="70" height="70" viewBox="0 0 70 70" fill="none" xmlns="http://www.w3.org/2000/svg">
<path d="M70.0006 70.0006H0V-9.99879e-06H70.0006V70.0006Z" fill="#1C63B7"/>
<path d="M5.76538 44.5892H8.15443V51.6309C8.15443 53.9564 9.54424 55.3515 11.3685 55.3515C13.213 55.3515 14.5826 53.9564 14.5826 51.6309V44.5892H16.9719V52.1366C16.9719 55.0682 14.7745 57.5725 11.3685 57.5725C7.96273 57.5725 5.76538 55.0682 5.76538 52.1366V44.5892" fill="white"/>
<path d="M30.235 57.2994V44.5892H27.8718V52.5193L20.9353 44.5892H19.645V57.2779H22.0086V49.381L28.9285 57.2994H30.235Z" fill="white"/>
<path d="M33.0615 44.5892H35.5152V57.2779H33.0615V44.5892Z" fill="white"/>
<path fill-rule="evenodd" clip-rule="evenodd" d="M44.4302 55.5665C41.9848 55.5665 40.0024 53.4923 40.0024 50.9338C40.0024 48.3747 41.9848 46.301 44.4302 46.301C46.8758 46.301 48.8582 48.3747 48.8582 50.9338C48.8582 51.8086 48.6262 52.6259 48.2241 53.3236L46.7571 51.8571L45.202 53.4125L46.7009 54.9114C46.0368 55.3272 45.2605 55.5665 44.4302 55.5665V55.5665ZM51.2489 50.9338C51.2489 47.2043 48.1965 44.1818 44.4302 44.1818C40.6646 44.1818 37.6118 47.2043 37.6118 50.9338C37.6118 54.6628 40.6646 57.6856 44.4302 57.6856C45.8629 57.6856 47.1917 57.2472 48.2894 56.4997L49.4015 57.6122L50.9565 56.0566L49.8853 54.9852C50.7419 53.8568 51.2489 52.4539 51.2489 50.9338" fill="white"/>
<path d="M55.7447 52.8013L57.6511 48.238L59.4981 52.8013H55.7447ZM61.3095 57.2779H63.9273L58.5209 44.5892H56.8763L51.3291 57.2779H53.8753L54.8733 54.8884H60.3422L61.3095 57.2779Z" fill="white"/>
<path d="M27.3867 38.1235H11.7778L13.406 35.2229H22.5907C22.7997 35.4013 23.0133 35.5748 23.2316 35.7429C24.4667 36.6931 25.8695 37.5483 27.3867 38.1235" fill="white"/>
<path d="M30.602 34.7562C28.6476 33.3326 27.2943 31.7538 26.2937 30.2302C25.1712 28.5227 22.7157 24.3718 24.4931 20.0274C25.2281 19.0402 26.2067 18.2201 26.9262 17.692C28.1244 16.8129 28.9802 16.4072 30.4283 16.0121C29.1408 16.7062 27.2578 18.7766 27.4535 22.7583C27.5454 24.6285 28.4332 26.8192 29.3241 28.1749C31.5906 31.6255 34.4398 33.1006 37.3727 33.8568C38.746 34.2108 40.8627 34.3837 43.5936 34.5302C45.8054 34.6499 50.3344 34.6765 51.1257 34.674L51.9684 34.6775L53.9081 38.3722C53.9081 38.3722 47.3265 38.3977 44.2685 38.2354C39.3121 37.9729 34.6994 37.7407 30.602 34.7562" fill="white"/>
<path d="M34.3489 37.7421C33.275 38.0073 32.22 38.1265 31.2523 38.1254C28.4701 38.1196 25.8504 36.8162 23.6868 35.1513C21.0912 33.1537 19.1934 30.3748 18.7133 27.3494C18.6432 26.9985 18.6115 26.6401 18.56 26.1406C18.3671 24.069 18.6641 21.4642 20.118 18.9717C21.3749 16.8183 23.249 14.9512 26.3354 13.6597C27.6232 13.1207 30.3888 12.515 33.591 13.3656C36.9553 14.2928 39.8959 16.3808 41.7863 19.1209C41.7863 19.1209 38.8861 15.3499 33.9212 14.9174C33.6971 14.8979 33.4726 14.8865 33.2478 14.8828C30.7941 14.8342 28.4471 15.6788 26.4925 17.0845C25.2461 17.9692 24.1496 19.086 23.3002 20.3718C23.1137 20.6543 21.289 23.324 21.2396 27.1865C21.1972 30.5437 22.7017 32.9628 23.2656 33.7792C23.2805 33.8005 24.681 34.747 26.7998 35.1504C28.0246 35.3839 29.3882 35.332 30.0068 35.2451C30.0585 35.2833 30.1106 35.3214 30.1628 35.3596C31.613 36.4161 33.1216 37.1412 34.6735 37.649L34.3489 37.7421" fill="white"/>
<path d="M43.8107 25.6438C44.039 28.7296 42.1483 32.119 41.0416 33.6177C39.567 33.4998 38.402 33.3513 37.5589 33.1338C37.1339 33.0244 36.7112 32.8993 36.2932 32.7546C37.5823 31.6571 39.3242 29.5867 40.1703 26.7393C41.3942 22.6199 39.9779 18.8248 38.2619 17.0451C42.4474 19.7323 43.6644 23.1385 43.8107 25.6438Z" fill="white"/>
</svg>
