<svg width="358" height="64" viewBox="0 0 358 64" fill="none" xmlns="http://www.w3.org/2000/svg">
<path fill-rule="evenodd" clip-rule="evenodd" d="M0 1.55534H16.414L29.5335 43.9569H29.7974L42.0345 1.55534H58.4436L71.5583 43.9569H71.8079L84.4488 1.55534H99.71L79.138 62.1438H64.1187L49.7237 20.7246H49.4836L36.7332 62.1438H21.0856L0 1.55534Z" fill="#18314F"/>
<path fill-rule="evenodd" clip-rule="evenodd" d="M358 41.9741H337.949V61.9879H358V41.9741" fill="#A91544"/>
<path fill-rule="evenodd" clip-rule="evenodd" d="M139.812 46.5296C137.343 49.7764 133.532 51.8992 128.707 51.8992C123.117 51.8992 118.722 49.6731 118.722 44.5023C118.722 35.1942 129.167 34.8603 136.217 34.8603H143.07C143.07 39.5795 142.382 43.0506 139.812 46.5296ZM131.291 2.66815e-06C124.681 2.66815e-06 114.609 2.11789 110.217 4.018V14.6746C114.343 13.3374 122.78 11.3246 129.493 11.3246C138.706 11.3246 143.07 14.7874 143.07 25.4472H134.438C127.809 25.4472 120.08 26.0101 114.039 28.9421C107.954 31.8487 103.704 36.436 103.704 45.4166C103.704 56.9555 114.141 63.4556 124.898 63.4556C132.093 63.4508 139.922 59.6427 143.643 53.0488H143.852L143.735 61.988H157.422V33.2877V25.5665C157.422 7.61634 149.788 2.66815e-06 131.291 2.66815e-06" fill="#18314F"/>
<path fill-rule="evenodd" clip-rule="evenodd" d="M310.156 46.5296C307.691 49.7764 303.872 51.8992 299.041 51.8992C293.452 51.8992 289.064 49.6731 289.064 44.5023C289.064 35.1942 299.494 34.8603 306.562 34.8603H313.399C313.399 39.5795 312.715 43.0506 310.156 46.5296V46.5296ZM301.625 2.66815e-06C295.019 2.66815e-06 284.922 2.11789 280.541 4.018V14.6746C284.699 13.3374 293.094 11.3246 299.828 11.3246C309.027 11.3246 313.399 14.7874 313.399 25.4472H304.773C298.151 25.4472 290.415 26.0101 284.357 28.9421C278.307 31.8487 274.051 36.436 274.051 45.4166C274.051 56.9555 284.476 63.4556 295.225 63.4556C302.428 63.4508 310.251 59.6427 313.984 53.0488H314.194L314.08 61.988H327.765V33.2877V25.5665C327.765 7.61634 320.141 2.66815e-06 301.625 2.66815e-06Z" fill="#18314F"/>
<path fill-rule="evenodd" clip-rule="evenodd" d="M262.255 13.8955V1.55536H217.814V13.8955H229.601V43.941C229.601 56.0253 235.699 62.9261 248.152 62.9261C252.898 62.9261 258.758 62.0277 263.973 60.2151L263.853 49.1325C261.588 49.9243 257.418 50.9372 252.548 50.9372C245.207 50.9372 245.303 46.1989 245.303 40.435V13.8955H262.255" fill="#18314F"/>
<path fill-rule="evenodd" clip-rule="evenodd" d="M209.394 0.450199C208.238 0.187651 207.049 0.0382658 205.83 0.0382658C197.864 0.0382658 191.165 4.18978 187.873 11.1385H187.635V1.54883H172.496V62.1438H187.635V29.6894C187.635 26.4139 189.643 14.4186 203.917 14.4186C205.729 14.4186 207.55 14.7063 209.394 15.1248V0.450199" fill="#18314F"/>
</svg>
